<svg xmlns="http://www.w3.org/2000/svg" width="390" height="390" viewBox="0 0 390 390">
<rect x="0" y="0" width="120" height="120" rx="8" fill="white" stroke="#e0e0e0" stroke-width="2" />
<line x1="20" y1="30" x2="100" y2="30" stroke="#333" stroke-width="6" stroke-linecap="round" />
<line x1="20" y1="60" x2="100" y2="60" stroke="#333" stroke-width="6" stroke-linecap="round" />
<line x1="20" y1="90" x2="100" y2="90" stroke="#333" stroke-width="6" stroke-linecap="round" />
<rect x="135" y="0" width="120" height="120" rx="8" fill="white" stroke="#e0e0e0" stroke-width="2" />
<rect x="270" y="0" width="120" height="120" rx="8" fill="white" stroke="#e0e0e0" stroke-width="2" />
<line x1="290" y1="30" x2="370" y2="30" stroke="#333" stroke-width="6" stroke-linecap="round" />
<line x1="290" y1="60" x2="370" y2="60" stroke="#333" stroke-width="6" stroke-linecap="round" />
<line x1="290" y1="90" x2="370" y2="90" stroke="#333" stroke-width="6" stroke-linecap="round" />
<rect x="0" y="135" width="120" height="120" rx="8" fill="white" stroke="#e0e0e0" stroke-width="2" />
<line x1="60" y1="155" x2="60" y2="235" stroke="#333" stroke-width="6" stroke-linecap="round" />
<line x1="20" y1="195" x2="100" y2="195" stroke="#333" stroke-width="6" stroke-linecap="round" />
<rect x="135" y="135" width="120" height="120" rx="8" fill="white" stroke="#e0e0e0" stroke-width="2" />
<line x1="155" y1="165" x2="235" y2="165" stroke="#333" stroke-width="6" stroke-linecap="round" />
<line x1="155" y1="195" x2="235" y2="195" stroke="#333" stroke-width="6" stroke-linecap="round" />
<line x1="155" y1="225" x2="235" y2="225" stroke="#333" stroke-width="6" stroke-linecap="round" />
<rect x="270" y="135" width="120" height="120" rx="8" fill="white" stroke="#e0e0e0" stroke-width="2" />
<line x1="310" y1="155" x2="310" y2="235" stroke="#333" stroke-width="6" stroke-linecap="round" />
<line x1="350" y1="155" x2="350" y2="235" stroke="#333" stroke-width="6" stroke-linecap="round" />
<line x1="290" y1="165" x2="370" y2="165" stroke="#333" stroke-width="6" stroke-linecap="round" />
<line x1="290" y1="195" x2="370" y2="195" stroke="#333" stroke-width="6" stroke-linecap="round" />
<line x1="290" y1="225" x2="370" y2="225" stroke="#333" stroke-width="6" stroke-linecap="round" />
<rect x="0" y="270" width="120" height="120" rx="8" fill="white" stroke="#e0e0e0" stroke-width="2" />
<line x1="40" y1="290" x2="40" y2="370" stroke="#333" stroke-width="6" stroke-linecap="round" />
<line x1="80" y1="290" x2="80" y2="370" stroke="#333" stroke-width="6" stroke-linecap="round" />
<line x1="20" y1="330" x2="100" y2="330" stroke="#333" stroke-width="6" stroke-linecap="round" />
<rect x="135" y="270" width="120" height="120" rx="8" fill="white" stroke="#e0e0e0" stroke-width="2" />
<line x1="155" y1="310" x2="235" y2="310" stroke="#333" stroke-width="6" stroke-linecap="round" />
<line x1="155" y1="350" x2="235" y2="350" stroke="#333" stroke-width="6" stroke-linecap="round" />
<rect x="270" y="270" width="120" height="120" rx="8" fill="white" stroke="#e0e0e0" stroke-width="2" />
<text x="330" y="350" font-family="Arial" font-size="60" fill="#cccccc" text-anchor="middle">?</text>
</svg>