<svg xmlns="http://www.w3.org/2000/svg" width="450" height="450" viewBox="0 0 450 450">
<rect x="4" y="4" width="442" height="442" rx="16" fill="white" stroke="#000000" stroke-width="3" />
<line x1="150" y1="4" x2="150" y2="446" stroke="#000000" stroke-width="2" />
<line x1="300" y1="4" x2="300" y2="446" stroke="#000000" stroke-width="2" />
<line x1="4" y1="150" x2="446" y2="150" stroke="#000000" stroke-width="2" />
<line x1="4" y1="300" x2="446" y2="300" stroke="#000000" stroke-width="2" />
<g transform="translate(0, 0)">
<line x1="53" y1="43" x2="97" y2="87" stroke="#000000" stroke-width="4" stroke-linecap="round"/>
<line x1="97" y1="43" x2="53" y2="87" stroke="#000000" stroke-width="4" stroke-linecap="round"/>
<polyline points="61,43 53,43 53,51" fill="none" stroke="#000000" stroke-width="4" stroke-linejoin="round" stroke-linecap="round"/>
<polyline points="89,87 97,87 97,79" fill="none" stroke="#000000" stroke-width="4" stroke-linejoin="round" stroke-linecap="round"/>
<polyline points="89,43 97,43 97,51" fill="none" stroke="#000000" stroke-width="4" stroke-linejoin="round" stroke-linecap="round"/>
<polyline points="61,87 53,87 53,79" fill="none" stroke="#000000" stroke-width="4" stroke-linejoin="round" stroke-linecap="round"/>
<rect x="40.0" y="30.0" width="70" height="70" fill="none" stroke="#000000" stroke-width="4" />
<line x1="30" y1="125" x2="120" y2="125" stroke="#000000" stroke-width="4" stroke-linecap="round"/>
<polyline points="108,115 120,125 108,135" fill="none" stroke="#000000" stroke-width="4" stroke-linejoin="round" stroke-linecap="round"/>
<circle cx="20" cy="20" r="6" fill="#000000"/>
</g>
<g transform="translate(150, 0)">
<polygon points="105.0,65.0 82.07106781186548,72.07106781186548 75.0,95.0 67.92893218813452,72.07106781186548 45.0,65.0 67.92893218813452,57.928932188134524 75.0,35.0 82.07106781186548,57.928932188134524" fill="none" stroke="#000000" stroke-width="4" stroke-linejoin="round"/>
<circle cx="20" cy="20" r="6" fill="#000000"/>
<circle cx="130" cy="20" r="6" fill="#000000"/>
</g>
<g transform="translate(300, 0)">
<polygon points="75.0,37.0 81.4656377752172,56.10081306187558 101.6295824562643,56.347524157501475 85.46162167924669,68.39918693812442 91.45798706418924,87.65247584249853 75.0,76.0 58.54201293581076,87.65247584249853 64.53837832075331,68.39918693812442 48.3704175437357,56.347524157501475 68.5343622247828,56.10081306187558" fill="none" stroke="#000000" stroke-width="4" stroke-linejoin="round"/>
</g>
<g transform="translate(0, 150)">
<polygon points="105.0,65.0 82.07106781186548,72.07106781186548 75.0,95.0 67.92893218813452,72.07106781186548 45.0,65.0 67.92893218813452,57.928932188134524 75.0,35.0 82.07106781186548,57.928932188134524" fill="none" stroke="#000000" stroke-width="4" stroke-linejoin="round"/>
<circle cx="20" cy="20" r="6" fill="#000000"/>
<circle cx="130" cy="20" r="6" fill="#000000"/>
</g>
<g transform="translate(150, 150)">
<polygon points="75.0,37.0 81.4656377752172,56.10081306187558 101.6295824562643,56.347524157501475 85.46162167924669,68.39918693812442 91.45798706418924,87.65247584249853 75.0,76.0 58.54201293581076,87.65247584249853 64.53837832075331,68.39918693812442 48.3704175437357,56.347524157501475 68.5343622247828,56.10081306187558" fill="none" stroke="#000000" stroke-width="4" stroke-linejoin="round"/>
<rect x="40.0" y="30.0" width="70" height="70" fill="none" stroke="#000000" stroke-width="4" />
<line x1="30" y1="125" x2="120" y2="125" stroke="#000000" stroke-width="4" stroke-linecap="round"/>
<polyline points="108,115 120,125 108,135" fill="none" stroke="#000000" stroke-width="4" stroke-linejoin="round" stroke-linecap="round"/>
</g>
<g transform="translate(300, 150)">
<line x1="53" y1="43" x2="97" y2="87" stroke="#000000" stroke-width="4" stroke-linecap="round"/>
<line x1="97" y1="43" x2="53" y2="87" stroke="#000000" stroke-width="4" stroke-linecap="round"/>
<polyline points="61,43 53,43 53,51" fill="none" stroke="#000000" stroke-width="4" stroke-linejoin="round" stroke-linecap="round"/>
<polyline points="89,87 97,87 97,79" fill="none" stroke="#000000" stroke-width="4" stroke-linejoin="round" stroke-linecap="round"/>
<polyline points="89,43 97,43 97,51" fill="none" stroke="#000000" stroke-width="4" stroke-linejoin="round" stroke-linecap="round"/>
<polyline points="61,87 53,87 53,79" fill="none" stroke="#000000" stroke-width="4" stroke-linejoin="round" stroke-linecap="round"/>
<circle cx="20" cy="20" r="6" fill="#000000"/>
</g>
<g transform="translate(0, 300)">
<polygon points="75.0,37.0 81.4656377752172,56.10081306187558 101.6295824562643,56.347524157501475 85.46162167924669,68.39918693812442 91.45798706418924,87.65247584249853 75.0,76.0 58.54201293581076,87.65247584249853 64.53837832075331,68.39918693812442 48.3704175437357,56.347524157501475 68.5343622247828,56.10081306187558" fill="none" stroke="#000000" stroke-width="4" stroke-linejoin="round"/>
</g>
<g transform="translate(150, 300)">
<line x1="53" y1="43" x2="97" y2="87" stroke="#000000" stroke-width="4" stroke-linecap="round"/>
<line x1="97" y1="43" x2="53" y2="87" stroke="#000000" stroke-width="4" stroke-linecap="round"/>
<polyline points="61,43 53,43 53,51" fill="none" stroke="#000000" stroke-width="4" stroke-linejoin="round" stroke-linecap="round"/>
<polyline points="89,87 97,87 97,79" fill="none" stroke="#000000" stroke-width="4" stroke-linejoin="round" stroke-linecap="round"/>
<polyline points="89,43 97,43 97,51" fill="none" stroke="#000000" stroke-width="4" stroke-linejoin="round" stroke-linecap="round"/>
<polyline points="61,87 53,87 53,79" fill="none" stroke="#000000" stroke-width="4" stroke-linejoin="round" stroke-linecap="round"/>
<circle cx="20" cy="20" r="6" fill="#000000"/>
</g>
<rect x="325" y="325" width="100" height="100" fill="none" stroke="#000000" stroke-width="2" stroke-dasharray="8 4" />
<text x="375" y="405" font-family="Arial" font-weight="bold" font-size="80" fill="#000000" text-anchor="middle">?</text>
</svg>