<svg xmlns="http://www.w3.org/2000/svg" width="390" height="390" viewBox="0 0 390 390">
<rect x="0" y="0" width="120" height="120" rx="8" fill="white" stroke="#e0e0e0" stroke-width="2" />
<line x1="10" y1="60" x2="110" y2="60" stroke="#333" stroke-width="4" stroke-linecap="round" />
<rect x="80" y="25" width="20" height="20" fill="white" stroke="#333" stroke-width="2" />
<rect x="20" y="25" width="20" height="20" fill="white" stroke="#333" stroke-width="2" />
<circle cx="30" cy="85" r="10" fill="#a0a0a0" stroke="#333" stroke-width="2" />
<rect x="20" y="75" width="20" height="20" fill="white" stroke="#333" stroke-width="2" />
<rect x="135" y="0" width="120" height="120" rx="8" fill="white" stroke="#e0e0e0" stroke-width="2" />
<line x1="145" y1="60" x2="245" y2="60" stroke="#333" stroke-width="4" stroke-linecap="round" />
<rect x="215" y="25" width="20" height="20" fill="white" stroke="#333" stroke-width="2" />
<rect x="155" y="25" width="20" height="20" fill="white" stroke="#333" stroke-width="2" />
<circle cx="195" cy="85" r="10" fill="#a0a0a0" stroke="#333" stroke-width="2" />
<rect x="155" y="75" width="20" height="20" fill="white" stroke="#333" stroke-width="2" />
<rect x="270" y="0" width="120" height="120" rx="8" fill="white" stroke="#e0e0e0" stroke-width="2" />
<line x1="280" y1="60" x2="380" y2="60" stroke="#333" stroke-width="4" stroke-linecap="round" />
<rect x="350" y="25" width="20" height="20" fill="white" stroke="#333" stroke-width="2" />
<rect x="290" y="25" width="20" height="20" fill="white" stroke="#333" stroke-width="2" />
<circle cx="360" cy="85" r="10" fill="#a0a0a0" stroke="#333" stroke-width="2" />
<rect x="290" y="75" width="20" height="20" fill="white" stroke="#333" stroke-width="2" />
<rect x="0" y="135" width="120" height="120" rx="8" fill="white" stroke="#e0e0e0" stroke-width="2" />
<line x1="10" y1="195" x2="110" y2="195" stroke="#333" stroke-width="4" stroke-linecap="round" />
<circle cx="30" cy="170" r="10" fill="#a0a0a0" stroke="#333" stroke-width="2" />
<rect x="50" y="160" width="20" height="20" fill="white" stroke="#333" stroke-width="2" />
<circle cx="30" cy="220" r="10" fill="#a0a0a0" stroke="#333" stroke-width="2" />
<rect x="20" y="210" width="20" height="20" fill="white" stroke="#333" stroke-width="2" />
<rect x="135" y="135" width="120" height="120" rx="8" fill="white" stroke="#e0e0e0" stroke-width="2" />
<line x1="145" y1="195" x2="245" y2="195" stroke="#333" stroke-width="4" stroke-linecap="round" />
<circle cx="165" cy="170" r="10" fill="#a0a0a0" stroke="#333" stroke-width="2" />
<rect x="185" y="160" width="20" height="20" fill="white" stroke="#333" stroke-width="2" />
<circle cx="195" cy="220" r="10" fill="#a0a0a0" stroke="#333" stroke-width="2" />
<rect x="155" y="210" width="20" height="20" fill="white" stroke="#333" stroke-width="2" />
<rect x="270" y="135" width="120" height="120" rx="8" fill="white" stroke="#e0e0e0" stroke-width="2" />
<line x1="280" y1="195" x2="380" y2="195" stroke="#333" stroke-width="4" stroke-linecap="round" />
<circle cx="300" cy="170" r="10" fill="#a0a0a0" stroke="#333" stroke-width="2" />
<rect x="320" y="160" width="20" height="20" fill="white" stroke="#333" stroke-width="2" />
<circle cx="360" cy="220" r="10" fill="#a0a0a0" stroke="#333" stroke-width="2" />
<rect x="290" y="210" width="20" height="20" fill="white" stroke="#333" stroke-width="2" />
<rect x="0" y="270" width="120" height="120" rx="8" fill="white" stroke="#e0e0e0" stroke-width="2" />
<line x1="10" y1="330" x2="110" y2="330" stroke="#333" stroke-width="4" stroke-linecap="round" />
<rect x="50" y="295" width="20" height="20" fill="white" stroke="#333" stroke-width="2" />
<circle cx="30" cy="355" r="10" fill="#a0a0a0" stroke="#333" stroke-width="2" />
<rect x="80" y="345" width="20" height="20" fill="white" stroke="#333" stroke-width="2" />
<rect x="135" y="270" width="120" height="120" rx="8" fill="white" stroke="#e0e0e0" stroke-width="2" />
<line x1="145" y1="330" x2="245" y2="330" stroke="#333" stroke-width="4" stroke-linecap="round" />
<rect x="185" y="295" width="20" height="20" fill="white" stroke="#333" stroke-width="2" />
<circle cx="195" cy="355" r="10" fill="#a0a0a0" stroke="#333" stroke-width="2" />
<rect x="215" y="345" width="20" height="20" fill="white" stroke="#333" stroke-width="2" />
<rect x="270" y="270" width="120" height="120" rx="8" fill="white" stroke="#e0e0e0" stroke-width="2" />
<text x="330" y="350" font-family="Arial" font-size="60" fill="#cccccc" text-anchor="middle">?</text>
</svg>