<svg xmlns="http://www.w3.org/2000/svg" width="390" height="390" viewBox="0 0 390 390">
<rect x="0" y="0" width="120" height="120" rx="8" fill="white" stroke="#e0e0e0" stroke-width="2" />
<rect x="24" y="24" width="24" height="24" fill="#ffffff" stroke="#333" stroke-width="2" />
<rect x="48" y="24" width="24" height="24" fill="#ffffff" stroke="#333" stroke-width="2" />
<rect x="72" y="24" width="24" height="24" fill="#111111" stroke="#333" stroke-width="2" />
<rect x="24" y="48" width="24" height="24" fill="#111111" stroke="#333" stroke-width="2" />
<rect x="48" y="48" width="24" height="24" fill="#111111" stroke="#333" stroke-width="2" />
<rect x="72" y="48" width="24" height="24" fill="#ffffff" stroke="#333" stroke-width="2" />
<rect x="24" y="72" width="24" height="24" fill="#111111" stroke="#333" stroke-width="2" />
<rect x="48" y="72" width="24" height="24" fill="#111111" stroke="#333" stroke-width="2" />
<rect x="72" y="72" width="24" height="24" fill="#ffffff" stroke="#333" stroke-width="2" />
<rect x="135" y="0" width="120" height="120" rx="8" fill="white" stroke="#e0e0e0" stroke-width="2" />
<rect x="159" y="24" width="24" height="24" fill="#111111" stroke="#333" stroke-width="2" />
<rect x="183" y="24" width="24" height="24" fill="#111111" stroke="#333" stroke-width="2" />
<rect x="207" y="24" width="24" height="24" fill="#111111" stroke="#333" stroke-width="2" />
<rect x="159" y="48" width="24" height="24" fill="#ffffff" stroke="#333" stroke-width="2" />
<rect x="183" y="48" width="24" height="24" fill="#111111" stroke="#333" stroke-width="2" />
<rect x="207" y="48" width="24" height="24" fill="#111111" stroke="#333" stroke-width="2" />
<rect x="159" y="72" width="24" height="24" fill="#ffffff" stroke="#333" stroke-width="2" />
<rect x="183" y="72" width="24" height="24" fill="#ffffff" stroke="#333" stroke-width="2" />
<rect x="207" y="72" width="24" height="24" fill="#ffffff" stroke="#333" stroke-width="2" />
<rect x="270" y="0" width="120" height="120" rx="8" fill="white" stroke="#e0e0e0" stroke-width="2" />
<rect x="294" y="24" width="24" height="24" fill="#111111" stroke="#333" stroke-width="2" />
<rect x="318" y="24" width="24" height="24" fill="#111111" stroke="#333" stroke-width="2" />
<rect x="342" y="24" width="24" height="24" fill="#111111" stroke="#333" stroke-width="2" />
<rect x="294" y="48" width="24" height="24" fill="#111111" stroke="#333" stroke-width="2" />
<rect x="318" y="48" width="24" height="24" fill="#111111" stroke="#333" stroke-width="2" />
<rect x="342" y="48" width="24" height="24" fill="#111111" stroke="#333" stroke-width="2" />
<rect x="294" y="72" width="24" height="24" fill="#111111" stroke="#333" stroke-width="2" />
<rect x="318" y="72" width="24" height="24" fill="#111111" stroke="#333" stroke-width="2" />
<rect x="342" y="72" width="24" height="24" fill="#ffffff" stroke="#333" stroke-width="2" />
<rect x="0" y="135" width="120" height="120" rx="8" fill="white" stroke="#e0e0e0" stroke-width="2" />
<rect x="24" y="159" width="24" height="24" fill="#111111" stroke="#333" stroke-width="2" />
<rect x="48" y="159" width="24" height="24" fill="#111111" stroke="#333" stroke-width="2" />
<rect x="72" y="159" width="24" height="24" fill="#111111" stroke="#333" stroke-width="2" />
<rect x="24" y="183" width="24" height="24" fill="#ffffff" stroke="#333" stroke-width="2" />
<rect x="48" y="183" width="24" height="24" fill="#111111" stroke="#333" stroke-width="2" />
<rect x="72" y="183" width="24" height="24" fill="#ffffff" stroke="#333" stroke-width="2" />
<rect x="24" y="207" width="24" height="24" fill="#111111" stroke="#333" stroke-width="2" />
<rect x="48" y="207" width="24" height="24" fill="#111111" stroke="#333" stroke-width="2" />
<rect x="72" y="207" width="24" height="24" fill="#ffffff" stroke="#333" stroke-width="2" />
<rect x="135" y="135" width="120" height="120" rx="8" fill="white" stroke="#e0e0e0" stroke-width="2" />
<rect x="159" y="159" width="24" height="24" fill="#ffffff" stroke="#333" stroke-width="2" />
<rect x="183" y="159" width="24" height="24" fill="#111111" stroke="#333" stroke-width="2" />
<rect x="207" y="159" width="24" height="24" fill="#111111" stroke="#333" stroke-width="2" />
<rect x="159" y="183" width="24" height="24" fill="#ffffff" stroke="#333" stroke-width="2" />
<rect x="183" y="183" width="24" height="24" fill="#111111" stroke="#333" stroke-width="2" />
<rect x="207" y="183" width="24" height="24" fill="#ffffff" stroke="#333" stroke-width="2" />
<rect x="159" y="207" width="24" height="24" fill="#ffffff" stroke="#333" stroke-width="2" />
<rect x="183" y="207" width="24" height="24" fill="#ffffff" stroke="#333" stroke-width="2" />
<rect x="207" y="207" width="24" height="24" fill="#111111" stroke="#333" stroke-width="2" />
<rect x="270" y="135" width="120" height="120" rx="8" fill="white" stroke="#e0e0e0" stroke-width="2" />
<rect x="294" y="159" width="24" height="24" fill="#111111" stroke="#333" stroke-width="2" />
<rect x="318" y="159" width="24" height="24" fill="#111111" stroke="#333" stroke-width="2" />
<rect x="342" y="159" width="24" height="24" fill="#111111" stroke="#333" stroke-width="2" />
<rect x="294" y="183" width="24" height="24" fill="#ffffff" stroke="#333" stroke-width="2" />
<rect x="318" y="183" width="24" height="24" fill="#111111" stroke="#333" stroke-width="2" />
<rect x="342" y="183" width="24" height="24" fill="#ffffff" stroke="#333" stroke-width="2" />
<rect x="294" y="207" width="24" height="24" fill="#111111" stroke="#333" stroke-width="2" />
<rect x="318" y="207" width="24" height="24" fill="#111111" stroke="#333" stroke-width="2" />
<rect x="342" y="207" width="24" height="24" fill="#111111" stroke="#333" stroke-width="2" />
<rect x="0" y="270" width="120" height="120" rx="8" fill="white" stroke="#e0e0e0" stroke-width="2" />
<rect x="24" y="294" width="24" height="24" fill="#ffffff" stroke="#333" stroke-width="2" />
<rect x="48" y="294" width="24" height="24" fill="#111111" stroke="#333" stroke-width="2" />
<rect x="72" y="294" width="24" height="24" fill="#ffffff" stroke="#333" stroke-width="2" />
<rect x="24" y="318" width="24" height="24" fill="#111111" stroke="#333" stroke-width="2" />
<rect x="48" y="318" width="24" height="24" fill="#111111" stroke="#333" stroke-width="2" />
<rect x="72" y="318" width="24" height="24" fill="#111111" stroke="#333" stroke-width="2" />
<rect x="24" y="342" width="24" height="24" fill="#111111" stroke="#333" stroke-width="2" />
<rect x="48" y="342" width="24" height="24" fill="#ffffff" stroke="#333" stroke-width="2" />
<rect x="72" y="342" width="24" height="24" fill="#ffffff" stroke="#333" stroke-width="2" />
<rect x="135" y="270" width="120" height="120" rx="8" fill="white" stroke="#e0e0e0" stroke-width="2" />
<rect x="159" y="294" width="24" height="24" fill="#ffffff" stroke="#333" stroke-width="2" />
<rect x="183" y="294" width="24" height="24" fill="#111111" stroke="#333" stroke-width="2" />
<rect x="207" y="294" width="24" height="24" fill="#ffffff" stroke="#333" stroke-width="2" />
<rect x="159" y="318" width="24" height="24" fill="#ffffff" stroke="#333" stroke-width="2" />
<rect x="183" y="318" width="24" height="24" fill="#ffffff" stroke="#333" stroke-width="2" />
<rect x="207" y="318" width="24" height="24" fill="#111111" stroke="#333" stroke-width="2" />
<rect x="159" y="342" width="24" height="24" fill="#ffffff" stroke="#333" stroke-width="2" />
<rect x="183" y="342" width="24" height="24" fill="#111111" stroke="#333" stroke-width="2" />
<rect x="207" y="342" width="24" height="24" fill="#ffffff" stroke="#333" stroke-width="2" />
<rect x="270" y="270" width="120" height="120" rx="8" fill="white" stroke="#e0e0e0" stroke-width="2" />
<text x="330" y="350" font-family="Arial" font-size="60" fill="#cccccc" text-anchor="middle">?</text>
</svg>