<svg xmlns="http://www.w3.org/2000/svg" width="390" height="390" viewBox="0 0 390 390">
<rect x="0" y="0" width="120" height="120" rx="8" fill="white" stroke="#e0e0e0" stroke-width="2" />
<line x1="60" y1="20" x2="60" y2="100" stroke="#333" stroke-width="4" stroke-linecap="round" />
<rect x="27" y="72" width="16" height="16" fill="white" stroke="#333" stroke-width="3" />
<rect x="77" y="72" width="16" height="16" fill="white" stroke="#333" stroke-width="3" />
<rect x="135" y="0" width="120" height="120" rx="8" fill="white" stroke="#e0e0e0" stroke-width="2" />
<line x1="195" y1="20" x2="195" y2="100" stroke="#333" stroke-width="4" stroke-linecap="round" />
<rect x="162" y="72" width="16" height="16" fill="white" stroke="#333" stroke-width="3" />
<rect x="270" y="0" width="120" height="120" rx="8" fill="white" stroke="#e0e0e0" stroke-width="2" />
<line x1="330" y1="20" x2="330" y2="100" stroke="#333" stroke-width="4" stroke-linecap="round" />
<rect x="347" y="72" width="16" height="16" fill="white" stroke="#333" stroke-width="3" />
<rect x="0" y="135" width="120" height="120" rx="8" fill="white" stroke="#e0e0e0" stroke-width="2" />
<line x1="60" y1="155" x2="60" y2="235" stroke="#333" stroke-width="4" stroke-linecap="round" />
<rect x="77" y="167" width="16" height="16" fill="white" stroke="#333" stroke-width="3" />
<rect x="27" y="207" width="16" height="16" fill="white" stroke="#333" stroke-width="3" />
<rect x="77" y="207" width="16" height="16" fill="white" stroke="#333" stroke-width="3" />
<rect x="135" y="135" width="120" height="120" rx="8" fill="white" stroke="#e0e0e0" stroke-width="2" />
<line x1="195" y1="155" x2="195" y2="235" stroke="#333" stroke-width="4" stroke-linecap="round" />
<rect x="212" y="167" width="16" height="16" fill="white" stroke="#333" stroke-width="3" />
<circle cx="170" cy="215" r="8" fill="#333" />
<rect x="212" y="207" width="16" height="16" fill="white" stroke="#333" stroke-width="3" />
<rect x="270" y="135" width="120" height="120" rx="8" fill="white" stroke="#e0e0e0" stroke-width="2" />
<line x1="330" y1="155" x2="330" y2="235" stroke="#333" stroke-width="4" stroke-linecap="round" />
<rect x="0" y="270" width="120" height="120" rx="8" fill="white" stroke="#e0e0e0" stroke-width="2" />
<line x1="60" y1="290" x2="60" y2="370" stroke="#333" stroke-width="4" stroke-linecap="round" />
<rect x="77" y="302" width="16" height="16" fill="white" stroke="#333" stroke-width="3" />
<rect x="135" y="270" width="120" height="120" rx="8" fill="white" stroke="#e0e0e0" stroke-width="2" />
<line x1="195" y1="290" x2="195" y2="370" stroke="#333" stroke-width="4" stroke-linecap="round" />
<rect x="162" y="302" width="16" height="16" fill="white" stroke="#333" stroke-width="3" />
<rect x="212" y="302" width="16" height="16" fill="white" stroke="#333" stroke-width="3" />
<rect x="212" y="342" width="16" height="16" fill="white" stroke="#333" stroke-width="3" />
<rect x="270" y="270" width="120" height="120" rx="8" fill="white" stroke="#e0e0e0" stroke-width="2" />
<text x="330" y="350" font-family="Arial" font-size="60" fill="#cccccc" text-anchor="middle">?</text>
</svg>