<?xml version="1.0" encoding="UTF-8" standalone="no"?>
<svg xmlns="http://www.w3.org/2000/svg" viewBox="0 0 660 660" width="660" height="660">
<rect width="100%" height="100%" fill="#FFFFFF"/>
<polygon points="115.00,45.00 175.62,80.00 175.62,150.00 115.00,185.00 54.38,150.00 54.38,80.00" fill="none" stroke="#040035" stroke-width="4" stroke-linejoin="round"/>
<circle cx="71.70" cy="90.00" r="12.00" fill="#040035" stroke="none" stroke-width="0"/>
<polygon points="330.00,45.00 390.62,80.00 390.62,150.00 330.00,185.00 269.38,150.00 269.38,80.00" fill="none" stroke="#040035" stroke-width="4" stroke-linejoin="round"/>
<circle cx="373.30" cy="90.00" r="12.00" fill="#040035" stroke="none" stroke-width="0"/>
<polygon points="545.00,45.00 605.62,80.00 605.62,150.00 545.00,185.00 484.38,150.00 484.38,80.00" fill="none" stroke="#040035" stroke-width="4" stroke-linejoin="round"/>
<circle cx="545.00" cy="165.00" r="12.00" fill="#040035" stroke="none" stroke-width="0"/>
<polygon points="115.00,260.00 175.62,295.00 175.62,365.00 115.00,400.00 54.38,365.00 54.38,295.00" fill="none" stroke="#040035" stroke-width="4" stroke-linejoin="round"/>
<circle cx="71.70" cy="355.00" r="12.00" fill="#040035" stroke="none" stroke-width="0"/>
<polygon points="330.00,260.00 390.62,295.00 390.62,365.00 330.00,400.00 269.38,365.00 269.38,295.00" fill="none" stroke="#040035" stroke-width="4" stroke-linejoin="round"/>
<circle cx="373.30" cy="355.00" r="12.00" fill="#040035" stroke="none" stroke-width="0"/>
<polygon points="545.00,260.00 605.62,295.00 605.62,365.00 545.00,400.00 484.38,365.00 484.38,295.00" fill="none" stroke="#040035" stroke-width="4" stroke-linejoin="round"/>
<circle cx="545.00" cy="280.00" r="12.00" fill="#040035" stroke="none" stroke-width="0"/>
<polygon points="115.00,475.00 175.62,510.00 175.62,580.00 115.00,615.00 54.38,580.00 54.38,510.00" fill="none" stroke="#040035" stroke-width="4" stroke-linejoin="round"/>
<circle cx="158.30" cy="570.00" r="12.00" fill="#040035" stroke="none" stroke-width="0"/>
<polygon points="330.00,475.00 390.62,510.00 390.62,580.00 330.00,615.00 269.38,580.00 269.38,510.00" fill="none" stroke="#040035" stroke-width="4" stroke-linejoin="round"/>
<circle cx="286.70" cy="520.00" r="12.00" fill="#040035" stroke="none" stroke-width="0"/>
<text x="545.00" y="590.00" font-family="Arial, Helvetica, sans-serif" font-size="140" font-weight="bold" fill="#040035" text-anchor="middle">?</text>
</svg>