<svg xmlns="http://www.w3.org/2000/svg" width="390" height="390" viewBox="0 0 390 390">
<rect x="0" y="0" width="120" height="120" rx="8" fill="white" stroke="#e0e0e0" stroke-width="2" />
<line x1="15" y1="60" x2="105" y2="60" stroke="#333" stroke-width="4" stroke-linecap="round" />
<circle cx="35" cy="35" r="5" fill="#333" />
<rect x="23" y="73" width="24" height="24" fill="none" stroke="#333" stroke-width="3" />
<rect x="73" y="23" width="24" height="24" fill="none" stroke="#333" stroke-width="3" />
<rect x="73" y="73" width="24" height="24" fill="none" stroke="#333" stroke-width="3" />
<rect x="135" y="0" width="120" height="120" rx="8" fill="white" stroke="#e0e0e0" stroke-width="2" />
<line x1="150" y1="60" x2="240" y2="60" stroke="#333" stroke-width="4" stroke-linecap="round" />
<circle cx="170" cy="35" r="5" fill="#333" />
<circle cx="170" cy="85" r="5" fill="#333" />
<circle cx="220" cy="35" r="5" fill="#333" />
<rect x="208" y="73" width="24" height="24" fill="none" stroke="#333" stroke-width="3" />
<circle cx="220" cy="85" r="5" fill="#333" />
<rect x="270" y="0" width="120" height="120" rx="8" fill="white" stroke="#e0e0e0" stroke-width="2" />
<line x1="285" y1="60" x2="375" y2="60" stroke="#333" stroke-width="4" stroke-linecap="round" />
<circle cx="305" cy="85" r="5" fill="#333" />
<rect x="343" y="23" width="24" height="24" fill="none" stroke="#333" stroke-width="3" />
<rect x="0" y="135" width="120" height="120" rx="8" fill="white" stroke="#e0e0e0" stroke-width="2" />
<line x1="15" y1="195" x2="105" y2="195" stroke="#333" stroke-width="4" stroke-linecap="round" />
<rect x="23" y="208" width="24" height="24" fill="none" stroke="#333" stroke-width="3" />
<rect x="73" y="158" width="24" height="24" fill="none" stroke="#333" stroke-width="3" />
<rect x="135" y="135" width="120" height="120" rx="8" fill="white" stroke="#e0e0e0" stroke-width="2" />
<line x1="150" y1="195" x2="240" y2="195" stroke="#333" stroke-width="4" stroke-linecap="round" />
<rect x="158" y="158" width="24" height="24" fill="none" stroke="#333" stroke-width="3" />
<circle cx="170" cy="170" r="5" fill="#333" />
<rect x="158" y="208" width="24" height="24" fill="none" stroke="#333" stroke-width="3" />
<circle cx="170" cy="220" r="5" fill="#333" />
<rect x="208" y="158" width="24" height="24" fill="none" stroke="#333" stroke-width="3" />
<circle cx="220" cy="170" r="5" fill="#333" />
<rect x="270" y="135" width="120" height="120" rx="8" fill="white" stroke="#e0e0e0" stroke-width="2" />
<line x1="285" y1="195" x2="375" y2="195" stroke="#333" stroke-width="4" stroke-linecap="round" />
<rect x="293" y="158" width="24" height="24" fill="none" stroke="#333" stroke-width="3" />
<rect x="343" y="208" width="24" height="24" fill="none" stroke="#333" stroke-width="3" />
<rect x="0" y="270" width="120" height="120" rx="8" fill="white" stroke="#e0e0e0" stroke-width="2" />
<line x1="15" y1="330" x2="105" y2="330" stroke="#333" stroke-width="4" stroke-linecap="round" />
<rect x="23" y="293" width="24" height="24" fill="none" stroke="#333" stroke-width="3" />
<rect x="73" y="293" width="24" height="24" fill="none" stroke="#333" stroke-width="3" />
<rect x="73" y="343" width="24" height="24" fill="none" stroke="#333" stroke-width="3" />
<rect x="135" y="270" width="120" height="120" rx="8" fill="white" stroke="#e0e0e0" stroke-width="2" />
<line x1="150" y1="330" x2="240" y2="330" stroke="#333" stroke-width="4" stroke-linecap="round" />
<circle cx="170" cy="305" r="5" fill="#333" />
<circle cx="170" cy="355" r="5" fill="#333" />
<rect x="208" y="293" width="24" height="24" fill="none" stroke="#333" stroke-width="3" />
<circle cx="220" cy="305" r="5" fill="#333" />
<rect x="208" y="343" width="24" height="24" fill="none" stroke="#333" stroke-width="3" />
<circle cx="220" cy="355" r="5" fill="#333" />
<rect x="270" y="270" width="120" height="120" rx="8" fill="white" stroke="#e0e0e0" stroke-width="2" />
<text x="330" y="350" font-family="Arial" font-size="60" fill="#cccccc" text-anchor="middle">?</text>
</svg>