<svg xmlns="http://www.w3.org/2000/svg" width="390" height="390" viewBox="0 0 390 390">
<rect x="0" y="0" width="120" height="120" rx="8" fill="white" stroke="#e0e0e0" stroke-width="2" />
<line x1="10" y1="10" x2="10" y2="110" stroke="#f0f2f5" stroke-width="2" />
<line x1="10" y1="10" x2="110" y2="10" stroke="#f0f2f5" stroke-width="2" />
<line x1="35" y1="10" x2="35" y2="110" stroke="#f0f2f5" stroke-width="2" />
<line x1="10" y1="35" x2="110" y2="35" stroke="#f0f2f5" stroke-width="2" />
<line x1="60" y1="10" x2="60" y2="110" stroke="#f0f2f5" stroke-width="2" />
<line x1="10" y1="60" x2="110" y2="60" stroke="#f0f2f5" stroke-width="2" />
<line x1="85" y1="10" x2="85" y2="110" stroke="#f0f2f5" stroke-width="2" />
<line x1="10" y1="85" x2="110" y2="85" stroke="#f0f2f5" stroke-width="2" />
<line x1="110" y1="10" x2="110" y2="110" stroke="#f0f2f5" stroke-width="2" />
<line x1="10" y1="110" x2="110" y2="110" stroke="#f0f2f5" stroke-width="2" />
<rect x="12" y="12" width="21" height="21" rx="4" fill="#2c3e50" />
<rect x="12" y="37" width="21" height="21" rx="4" fill="#2c3e50" />
<rect x="37" y="37" width="21" height="21" rx="4" fill="#2c3e50" />
<rect x="62" y="37" width="21" height="21" rx="4" fill="#2c3e50" />
<rect x="12" y="62" width="21" height="21" rx="4" fill="#2c3e50" />
<rect x="12" y="87" width="21" height="21" rx="4" fill="#2c3e50" />
<rect x="37" y="87" width="21" height="21" rx="4" fill="#2c3e50" />
<rect x="135" y="0" width="120" height="120" rx="8" fill="white" stroke="#e0e0e0" stroke-width="2" />
<line x1="145" y1="10" x2="145" y2="110" stroke="#f0f2f5" stroke-width="2" />
<line x1="145" y1="10" x2="245" y2="10" stroke="#f0f2f5" stroke-width="2" />
<line x1="170" y1="10" x2="170" y2="110" stroke="#f0f2f5" stroke-width="2" />
<line x1="145" y1="35" x2="245" y2="35" stroke="#f0f2f5" stroke-width="2" />
<line x1="195" y1="10" x2="195" y2="110" stroke="#f0f2f5" stroke-width="2" />
<line x1="145" y1="60" x2="245" y2="60" stroke="#f0f2f5" stroke-width="2" />
<line x1="220" y1="10" x2="220" y2="110" stroke="#f0f2f5" stroke-width="2" />
<line x1="145" y1="85" x2="245" y2="85" stroke="#f0f2f5" stroke-width="2" />
<line x1="245" y1="10" x2="245" y2="110" stroke="#f0f2f5" stroke-width="2" />
<line x1="145" y1="110" x2="245" y2="110" stroke="#f0f2f5" stroke-width="2" />
<rect x="147" y="12" width="21" height="21" rx="4" fill="#2c3e50" />
<rect x="147" y="37" width="21" height="21" rx="4" fill="#2c3e50" />
<rect x="172" y="37" width="21" height="21" rx="4" fill="#2c3e50" />
<rect x="197" y="37" width="21" height="21" rx="4" fill="#2c3e50" />
<rect x="147" y="62" width="21" height="21" rx="4" fill="#2c3e50" />
<rect x="147" y="87" width="21" height="21" rx="4" fill="#2c3e50" />
<rect x="172" y="87" width="21" height="21" rx="4" fill="#2c3e50" />
<rect x="197" y="87" width="21" height="21" rx="4" fill="#2c3e50" />
<rect x="270" y="0" width="120" height="120" rx="8" fill="white" stroke="#e0e0e0" stroke-width="2" />
<line x1="280" y1="10" x2="280" y2="110" stroke="#f0f2f5" stroke-width="2" />
<line x1="280" y1="10" x2="380" y2="10" stroke="#f0f2f5" stroke-width="2" />
<line x1="305" y1="10" x2="305" y2="110" stroke="#f0f2f5" stroke-width="2" />
<line x1="280" y1="35" x2="380" y2="35" stroke="#f0f2f5" stroke-width="2" />
<line x1="330" y1="10" x2="330" y2="110" stroke="#f0f2f5" stroke-width="2" />
<line x1="280" y1="60" x2="380" y2="60" stroke="#f0f2f5" stroke-width="2" />
<line x1="355" y1="10" x2="355" y2="110" stroke="#f0f2f5" stroke-width="2" />
<line x1="280" y1="85" x2="380" y2="85" stroke="#f0f2f5" stroke-width="2" />
<line x1="380" y1="10" x2="380" y2="110" stroke="#f0f2f5" stroke-width="2" />
<line x1="280" y1="110" x2="380" y2="110" stroke="#f0f2f5" stroke-width="2" />
<rect x="282" y="12" width="21" height="21" rx="4" fill="#2c3e50" />
<rect x="282" y="37" width="21" height="21" rx="4" fill="#2c3e50" />
<rect x="307" y="37" width="21" height="21" rx="4" fill="#2c3e50" />
<rect x="332" y="37" width="21" height="21" rx="4" fill="#2c3e50" />
<rect x="282" y="62" width="21" height="21" rx="4" fill="#2c3e50" />
<rect x="282" y="87" width="21" height="21" rx="4" fill="#2c3e50" />
<rect x="307" y="87" width="21" height="21" rx="4" fill="#2c3e50" />
<rect x="332" y="87" width="21" height="21" rx="4" fill="#2c3e50" />
<rect x="357" y="87" width="21" height="21" rx="4" fill="#2c3e50" />
<rect x="0" y="135" width="120" height="120" rx="8" fill="white" stroke="#e0e0e0" stroke-width="2" />
<line x1="10" y1="145" x2="10" y2="245" stroke="#f0f2f5" stroke-width="2" />
<line x1="10" y1="145" x2="110" y2="145" stroke="#f0f2f5" stroke-width="2" />
<line x1="35" y1="145" x2="35" y2="245" stroke="#f0f2f5" stroke-width="2" />
<line x1="10" y1="170" x2="110" y2="170" stroke="#f0f2f5" stroke-width="2" />
<line x1="60" y1="145" x2="60" y2="245" stroke="#f0f2f5" stroke-width="2" />
<line x1="10" y1="195" x2="110" y2="195" stroke="#f0f2f5" stroke-width="2" />
<line x1="85" y1="145" x2="85" y2="245" stroke="#f0f2f5" stroke-width="2" />
<line x1="10" y1="220" x2="110" y2="220" stroke="#f0f2f5" stroke-width="2" />
<line x1="110" y1="145" x2="110" y2="245" stroke="#f0f2f5" stroke-width="2" />
<line x1="10" y1="245" x2="110" y2="245" stroke="#f0f2f5" stroke-width="2" />
<rect x="37" y="147" width="21" height="21" rx="4" fill="#2c3e50" />
<rect x="62" y="147" width="21" height="21" rx="4" fill="#2c3e50" />
<rect x="37" y="172" width="21" height="21" rx="4" fill="#2c3e50" />
<rect x="37" y="197" width="21" height="21" rx="4" fill="#2c3e50" />
<rect x="62" y="197" width="21" height="21" rx="4" fill="#2c3e50" />
<rect x="37" y="222" width="21" height="21" rx="4" fill="#2c3e50" />
<rect x="135" y="135" width="120" height="120" rx="8" fill="white" stroke="#e0e0e0" stroke-width="2" />
<line x1="145" y1="145" x2="145" y2="245" stroke="#f0f2f5" stroke-width="2" />
<line x1="145" y1="145" x2="245" y2="145" stroke="#f0f2f5" stroke-width="2" />
<line x1="170" y1="145" x2="170" y2="245" stroke="#f0f2f5" stroke-width="2" />
<line x1="145" y1="170" x2="245" y2="170" stroke="#f0f2f5" stroke-width="2" />
<line x1="195" y1="145" x2="195" y2="245" stroke="#f0f2f5" stroke-width="2" />
<line x1="145" y1="195" x2="245" y2="195" stroke="#f0f2f5" stroke-width="2" />
<line x1="220" y1="145" x2="220" y2="245" stroke="#f0f2f5" stroke-width="2" />
<line x1="145" y1="220" x2="245" y2="220" stroke="#f0f2f5" stroke-width="2" />
<line x1="245" y1="145" x2="245" y2="245" stroke="#f0f2f5" stroke-width="2" />
<line x1="145" y1="245" x2="245" y2="245" stroke="#f0f2f5" stroke-width="2" />
<rect x="172" y="147" width="21" height="21" rx="4" fill="#2c3e50" />
<rect x="197" y="147" width="21" height="21" rx="4" fill="#2c3e50" />
<rect x="172" y="172" width="21" height="21" rx="4" fill="#2c3e50" />
<rect x="197" y="172" width="21" height="21" rx="4" fill="#2c3e50" />
<rect x="172" y="197" width="21" height="21" rx="4" fill="#2c3e50" />
<rect x="197" y="197" width="21" height="21" rx="4" fill="#2c3e50" />
<rect x="172" y="222" width="21" height="21" rx="4" fill="#2c3e50" />
<rect x="270" y="135" width="120" height="120" rx="8" fill="white" stroke="#e0e0e0" stroke-width="2" />
<line x1="280" y1="145" x2="280" y2="245" stroke="#f0f2f5" stroke-width="2" />
<line x1="280" y1="145" x2="380" y2="145" stroke="#f0f2f5" stroke-width="2" />
<line x1="305" y1="145" x2="305" y2="245" stroke="#f0f2f5" stroke-width="2" />
<line x1="280" y1="170" x2="380" y2="170" stroke="#f0f2f5" stroke-width="2" />
<line x1="330" y1="145" x2="330" y2="245" stroke="#f0f2f5" stroke-width="2" />
<line x1="280" y1="195" x2="380" y2="195" stroke="#f0f2f5" stroke-width="2" />
<line x1="355" y1="145" x2="355" y2="245" stroke="#f0f2f5" stroke-width="2" />
<line x1="280" y1="220" x2="380" y2="220" stroke="#f0f2f5" stroke-width="2" />
<line x1="380" y1="145" x2="380" y2="245" stroke="#f0f2f5" stroke-width="2" />
<line x1="280" y1="245" x2="380" y2="245" stroke="#f0f2f5" stroke-width="2" />
<rect x="307" y="147" width="21" height="21" rx="4" fill="#2c3e50" />
<rect x="332" y="147" width="21" height="21" rx="4" fill="#2c3e50" />
<rect x="307" y="172" width="21" height="21" rx="4" fill="#2c3e50" />
<rect x="332" y="172" width="21" height="21" rx="4" fill="#2c3e50" />
<rect x="357" y="172" width="21" height="21" rx="4" fill="#2c3e50" />
<rect x="307" y="197" width="21" height="21" rx="4" fill="#2c3e50" />
<rect x="332" y="197" width="21" height="21" rx="4" fill="#2c3e50" />
<rect x="307" y="222" width="21" height="21" rx="4" fill="#2c3e50" />
<rect x="0" y="270" width="120" height="120" rx="8" fill="white" stroke="#e0e0e0" stroke-width="2" />
<line x1="10" y1="280" x2="10" y2="380" stroke="#f0f2f5" stroke-width="2" />
<line x1="10" y1="280" x2="110" y2="280" stroke="#f0f2f5" stroke-width="2" />
<line x1="35" y1="280" x2="35" y2="380" stroke="#f0f2f5" stroke-width="2" />
<line x1="10" y1="305" x2="110" y2="305" stroke="#f0f2f5" stroke-width="2" />
<line x1="60" y1="280" x2="60" y2="380" stroke="#f0f2f5" stroke-width="2" />
<line x1="10" y1="330" x2="110" y2="330" stroke="#f0f2f5" stroke-width="2" />
<line x1="85" y1="280" x2="85" y2="380" stroke="#f0f2f5" stroke-width="2" />
<line x1="10" y1="355" x2="110" y2="355" stroke="#f0f2f5" stroke-width="2" />
<line x1="110" y1="280" x2="110" y2="380" stroke="#f0f2f5" stroke-width="2" />
<line x1="10" y1="380" x2="110" y2="380" stroke="#f0f2f5" stroke-width="2" />
<rect x="12" y="282" width="21" height="21" rx="4" fill="#2c3e50" />
<rect x="37" y="282" width="21" height="21" rx="4" fill="#2c3e50" />
<rect x="62" y="282" width="21" height="21" rx="4" fill="#2c3e50" />
<rect x="37" y="307" width="21" height="21" rx="4" fill="#2c3e50" />
<rect x="62" y="307" width="21" height="21" rx="4" fill="#2c3e50" />
<rect x="12" y="332" width="21" height="21" rx="4" fill="#2c3e50" />
<rect x="37" y="332" width="21" height="21" rx="4" fill="#2c3e50" />
<rect x="135" y="270" width="120" height="120" rx="8" fill="white" stroke="#e0e0e0" stroke-width="2" />
<line x1="145" y1="280" x2="145" y2="380" stroke="#f0f2f5" stroke-width="2" />
<line x1="145" y1="280" x2="245" y2="280" stroke="#f0f2f5" stroke-width="2" />
<line x1="170" y1="280" x2="170" y2="380" stroke="#f0f2f5" stroke-width="2" />
<line x1="145" y1="305" x2="245" y2="305" stroke="#f0f2f5" stroke-width="2" />
<line x1="195" y1="280" x2="195" y2="380" stroke="#f0f2f5" stroke-width="2" />
<line x1="145" y1="330" x2="245" y2="330" stroke="#f0f2f5" stroke-width="2" />
<line x1="220" y1="280" x2="220" y2="380" stroke="#f0f2f5" stroke-width="2" />
<line x1="145" y1="355" x2="245" y2="355" stroke="#f0f2f5" stroke-width="2" />
<line x1="245" y1="280" x2="245" y2="380" stroke="#f0f2f5" stroke-width="2" />
<line x1="145" y1="380" x2="245" y2="380" stroke="#f0f2f5" stroke-width="2" />
<rect x="147" y="282" width="21" height="21" rx="4" fill="#2c3e50" />
<rect x="172" y="282" width="21" height="21" rx="4" fill="#2c3e50" />
<rect x="197" y="282" width="21" height="21" rx="4" fill="#2c3e50" />
<rect x="172" y="307" width="21" height="21" rx="4" fill="#2c3e50" />
<rect x="197" y="307" width="21" height="21" rx="4" fill="#2c3e50" />
<rect x="147" y="332" width="21" height="21" rx="4" fill="#2c3e50" />
<rect x="172" y="332" width="21" height="21" rx="4" fill="#2c3e50" />
<rect x="197" y="332" width="21" height="21" rx="4" fill="#2c3e50" />
<rect x="270" y="270" width="120" height="120" rx="8" fill="white" stroke="#e0e0e0" stroke-width="2" />
<text x="330" y="350" font-family="Arial" font-size="60" fill="#cccccc" text-anchor="middle">?</text>
</svg>