<?xml version="1.0" encoding="UTF-8" standalone="no"?>
<svg xmlns="http://www.w3.org/2000/svg" viewBox="0 0 660 660" width="660" height="660">
<rect width="100%" height="100%" fill="#FFFFFF"/>
<polygon points="115.00,45.00 181.57,93.37 156.14,171.63 73.86,171.63 48.43,93.37" fill="none" stroke="#040035" stroke-width="4" stroke-linejoin="round"/>
<polygon points="330.00,45.00 390.62,80.00 390.62,150.00 330.00,185.00 269.38,150.00 269.38,80.00" fill="none" stroke="#040035" stroke-width="4" stroke-linejoin="round"/>
<circle cx="330.00" cy="115.00" r="12.00" fill="#040035" stroke="none" stroke-width="0"/>
<polygon points="545.00,45.00 599.73,71.36 613.24,130.58 575.37,178.07 514.63,178.07 476.76,130.58 490.27,71.36" fill="none" stroke="#040035" stroke-width="4" stroke-linejoin="round"/>
<polygon points="115.00,260.00 164.50,280.50 185.00,330.00 164.50,379.50 115.00,400.00 65.50,379.50 45.00,330.00 65.50,280.50" fill="none" stroke="#040035" stroke-width="4" stroke-linejoin="round"/>
<circle cx="115.00" cy="330.00" r="12.00" fill="#040035" stroke="none" stroke-width="0"/>
<polygon points="330.00,260.00 375.00,276.38 398.94,317.84 390.62,365.00 353.94,395.78 306.06,395.78 269.38,365.00 261.06,317.84 285.00,276.38" fill="none" stroke="#040035" stroke-width="4" stroke-linejoin="round"/>
<polygon points="545.00,260.00 586.14,273.37 611.57,308.37 611.57,351.63 586.14,386.63 545.00,400.00 503.86,386.63 478.43,351.63 478.43,308.37 503.86,273.37" fill="none" stroke="#040035" stroke-width="4" stroke-linejoin="round"/>
<circle cx="545.00" cy="330.00" r="12.00" fill="#040035" stroke="none" stroke-width="0"/>
<polygon points="115.00,475.00 152.84,486.11 178.67,515.92 184.29,554.96 167.90,590.84 134.72,612.16 95.28,612.16 62.10,590.84 45.71,554.96 51.33,515.92 77.16,486.11" fill="none" stroke="#040035" stroke-width="4" stroke-linejoin="round"/>
<polygon points="330.00,475.00 365.00,484.38 390.62,510.00 400.00,545.00 390.62,580.00 365.00,605.62 330.00,615.00 295.00,605.62 269.38,580.00 260.00,545.00 269.38,510.00 295.00,484.38" fill="none" stroke="#040035" stroke-width="4" stroke-linejoin="round"/>
<circle cx="330.00" cy="545.00" r="12.00" fill="#040035" stroke="none" stroke-width="0"/>
<text x="545.00" y="590.00" font-family="Arial, Helvetica, sans-serif" font-size="140" font-weight="bold" fill="#040035" text-anchor="middle">?</text>
</svg>