<?xml version="1.0" encoding="UTF-8" standalone="no"?>
<svg xmlns="http://www.w3.org/2000/svg" viewBox="0 0 660 660" width="660" height="660">
<rect width="100%" height="100%" fill="#FFFFFF"/>
<rect x="45.00" y="45.00" width="140.00" height="140.00" fill="none" stroke="#040035" stroke-width="2.0"/>
<line x1="115.00" y1="115.00" x2="185.00" y2="115.00" stroke="#040035" stroke-width="4" stroke-linecap="round"/>
<line x1="115.00" y1="115.00" x2="185.00" y2="185.00" stroke="#040035" stroke-width="4" stroke-linecap="round"/>
<line x1="115.00" y1="115.00" x2="45.00" y2="185.00" stroke="#040035" stroke-width="4" stroke-linecap="round"/>
<line x1="115.00" y1="115.00" x2="45.00" y2="115.00" stroke="#040035" stroke-width="4" stroke-linecap="round"/>
<rect x="260.00" y="45.00" width="140.00" height="140.00" fill="none" stroke="#040035" stroke-width="2.0"/>
<line x1="330.00" y1="115.00" x2="330.00" y2="45.00" stroke="#040035" stroke-width="4" stroke-linecap="round"/>
<line x1="330.00" y1="115.00" x2="400.00" y2="115.00" stroke="#040035" stroke-width="4" stroke-linecap="round"/>
<line x1="330.00" y1="115.00" x2="260.00" y2="45.00" stroke="#040035" stroke-width="4" stroke-linecap="round"/>
<rect x="475.00" y="45.00" width="140.00" height="140.00" fill="none" stroke="#040035" stroke-width="2.0"/>
<line x1="545.00" y1="115.00" x2="545.00" y2="45.00" stroke="#040035" stroke-width="4" stroke-linecap="round"/>
<line x1="545.00" y1="115.00" x2="615.00" y2="185.00" stroke="#040035" stroke-width="4" stroke-linecap="round"/>
<line x1="545.00" y1="115.00" x2="475.00" y2="185.00" stroke="#040035" stroke-width="4" stroke-linecap="round"/>
<line x1="545.00" y1="115.00" x2="475.00" y2="115.00" stroke="#040035" stroke-width="4" stroke-linecap="round"/>
<line x1="545.00" y1="115.00" x2="475.00" y2="45.00" stroke="#040035" stroke-width="4" stroke-linecap="round"/>
<rect x="45.00" y="260.00" width="140.00" height="140.00" fill="none" stroke="#040035" stroke-width="2.0"/>
<line x1="115.00" y1="330.00" x2="115.00" y2="260.00" stroke="#040035" stroke-width="4" stroke-linecap="round"/>
<line x1="115.00" y1="330.00" x2="185.00" y2="330.00" stroke="#040035" stroke-width="4" stroke-linecap="round"/>
<line x1="115.00" y1="330.00" x2="115.00" y2="400.00" stroke="#040035" stroke-width="4" stroke-linecap="round"/>
<line x1="115.00" y1="330.00" x2="45.00" y2="330.00" stroke="#040035" stroke-width="4" stroke-linecap="round"/>
<rect x="260.00" y="260.00" width="140.00" height="140.00" fill="none" stroke="#040035" stroke-width="2.0"/>
<line x1="330.00" y1="330.00" x2="330.00" y2="260.00" stroke="#040035" stroke-width="4" stroke-linecap="round"/>
<line x1="330.00" y1="330.00" x2="400.00" y2="260.00" stroke="#040035" stroke-width="4" stroke-linecap="round"/>
<line x1="330.00" y1="330.00" x2="400.00" y2="330.00" stroke="#040035" stroke-width="4" stroke-linecap="round"/>
<rect x="475.00" y="260.00" width="140.00" height="140.00" fill="none" stroke="#040035" stroke-width="2.0"/>
<line x1="545.00" y1="330.00" x2="615.00" y2="260.00" stroke="#040035" stroke-width="4" stroke-linecap="round"/>
<line x1="545.00" y1="330.00" x2="545.00" y2="400.00" stroke="#040035" stroke-width="4" stroke-linecap="round"/>
<line x1="545.00" y1="330.00" x2="475.00" y2="330.00" stroke="#040035" stroke-width="4" stroke-linecap="round"/>
<rect x="45.00" y="475.00" width="140.00" height="140.00" fill="none" stroke="#040035" stroke-width="2.0"/>
<line x1="115.00" y1="545.00" x2="185.00" y2="615.00" stroke="#040035" stroke-width="4" stroke-linecap="round"/>
<line x1="115.00" y1="545.00" x2="115.00" y2="615.00" stroke="#040035" stroke-width="4" stroke-linecap="round"/>
<line x1="115.00" y1="545.00" x2="45.00" y2="615.00" stroke="#040035" stroke-width="4" stroke-linecap="round"/>
<line x1="115.00" y1="545.00" x2="45.00" y2="475.00" stroke="#040035" stroke-width="4" stroke-linecap="round"/>
<rect x="260.00" y="475.00" width="140.00" height="140.00" fill="none" stroke="#040035" stroke-width="2.0"/>
<line x1="330.00" y1="545.00" x2="260.00" y2="615.00" stroke="#040035" stroke-width="4" stroke-linecap="round"/>
<line x1="330.00" y1="545.00" x2="260.00" y2="545.00" stroke="#040035" stroke-width="4" stroke-linecap="round"/>
<line x1="330.00" y1="545.00" x2="260.00" y2="475.00" stroke="#040035" stroke-width="4" stroke-linecap="round"/>
<text x="545.00" y="590.00" font-family="Arial, Helvetica, sans-serif" font-size="140" font-weight="bold" fill="#040035" text-anchor="middle">?</text>
</svg>