<?xml version="1.0" encoding="UTF-8" standalone="no"?>
<svg xmlns="http://www.w3.org/2000/svg" viewBox="0 0 660 660" width="660" height="660">
<rect width="100%" height="100%" fill="#FFFFFF"/>
<line x1="175.00" y1="55.00" x2="175.00" y2="175.00" stroke="#040035" stroke-width="6.0" stroke-linecap="round"/>
<line x1="55.00" y1="55.00" x2="55.00" y2="175.00" stroke="#040035" stroke-width="6.0" stroke-linecap="round"/>
<line x1="270.00" y1="55.00" x2="390.00" y2="175.00" stroke="#040035" stroke-width="6.0" stroke-linecap="round"/>
<line x1="605.00" y1="55.00" x2="605.00" y2="175.00" stroke="#040035" stroke-width="6.0" stroke-linecap="round"/>
<line x1="485.00" y1="55.00" x2="485.00" y2="175.00" stroke="#040035" stroke-width="6.0" stroke-linecap="round"/>
<line x1="485.00" y1="55.00" x2="605.00" y2="175.00" stroke="#040035" stroke-width="6.0" stroke-linecap="round"/>
<line x1="55.00" y1="270.00" x2="175.00" y2="390.00" stroke="#040035" stroke-width="6.0" stroke-linecap="round"/>
<line x1="270.00" y1="270.00" x2="270.00" y2="390.00" stroke="#040035" stroke-width="6.0" stroke-linecap="round"/>
<line x1="270.00" y1="270.00" x2="390.00" y2="390.00" stroke="#040035" stroke-width="6.0" stroke-linecap="round"/>
<line x1="485.00" y1="270.00" x2="485.00" y2="390.00" stroke="#040035" stroke-width="6.0" stroke-linecap="round"/>
<line x1="55.00" y1="485.00" x2="175.00" y2="485.00" stroke="#040035" stroke-width="6.0" stroke-linecap="round"/>
<line x1="270.00" y1="485.00" x2="390.00" y2="485.00" stroke="#040035" stroke-width="6.0" stroke-linecap="round"/>
<line x1="270.00" y1="605.00" x2="390.00" y2="605.00" stroke="#040035" stroke-width="6.0" stroke-linecap="round"/>
<line x1="270.00" y1="485.00" x2="270.00" y2="605.00" stroke="#040035" stroke-width="6.0" stroke-linecap="round"/>
<text x="545.00" y="590.00" font-family="Arial, Helvetica, sans-serif" font-size="140" font-weight="bold" fill="#040035" text-anchor="middle">?</text>
</svg>