<svg xmlns="http://www.w3.org/2000/svg" width="390" height="390" viewBox="0 0 390 390">
<rect x="0" y="0" width="120" height="120" rx="8" fill="white" stroke="#e0e0e0" stroke-width="2" />
<line x1="95" y1="95" x2="25" y2="95" stroke="#333" stroke-width="5" stroke-linecap="round" />
<line x1="25" y1="25" x2="95" y2="95" stroke="#333" stroke-width="5" stroke-linecap="round" />
<rect x="135" y="0" width="120" height="120" rx="8" fill="white" stroke="#e0e0e0" stroke-width="2" />
<line x1="160" y1="25" x2="230" y2="95" stroke="#333" stroke-width="5" stroke-linecap="round" />
<line x1="230" y1="25" x2="160" y2="95" stroke="#333" stroke-width="5" stroke-linecap="round" />
<rect x="270" y="0" width="120" height="120" rx="8" fill="white" stroke="#e0e0e0" stroke-width="2" />
<line x1="365" y1="95" x2="295" y2="95" stroke="#333" stroke-width="5" stroke-linecap="round" />
<line x1="295" y1="25" x2="365" y2="95" stroke="#333" stroke-width="5" stroke-linecap="round" />
<line x1="365" y1="25" x2="295" y2="95" stroke="#333" stroke-width="5" stroke-linecap="round" />
<rect x="0" y="135" width="120" height="120" rx="8" fill="white" stroke="#e0e0e0" stroke-width="2" />
<line x1="95" y1="160" x2="25" y2="230" stroke="#333" stroke-width="5" stroke-linecap="round" />
<rect x="135" y="135" width="120" height="120" rx="8" fill="white" stroke="#e0e0e0" stroke-width="2" />
<line x1="230" y1="160" x2="230" y2="230" stroke="#333" stroke-width="5" stroke-linecap="round" />
<line x1="230" y1="230" x2="160" y2="230" stroke="#333" stroke-width="5" stroke-linecap="round" />
<line x1="160" y1="230" x2="160" y2="160" stroke="#333" stroke-width="5" stroke-linecap="round" />
<line x1="160" y1="160" x2="230" y2="230" stroke="#333" stroke-width="5" stroke-linecap="round" />
<rect x="270" y="135" width="120" height="120" rx="8" fill="white" stroke="#e0e0e0" stroke-width="2" />
<line x1="365" y1="160" x2="365" y2="230" stroke="#333" stroke-width="5" stroke-linecap="round" />
<line x1="365" y1="230" x2="295" y2="230" stroke="#333" stroke-width="5" stroke-linecap="round" />
<line x1="295" y1="230" x2="295" y2="160" stroke="#333" stroke-width="5" stroke-linecap="round" />
<line x1="295" y1="160" x2="365" y2="230" stroke="#333" stroke-width="5" stroke-linecap="round" />
<line x1="365" y1="160" x2="295" y2="230" stroke="#333" stroke-width="5" stroke-linecap="round" />
<rect x="0" y="270" width="120" height="120" rx="8" fill="white" stroke="#e0e0e0" stroke-width="2" />
<line x1="25" y1="295" x2="95" y2="295" stroke="#333" stroke-width="5" stroke-linecap="round" />
<line x1="95" y1="295" x2="95" y2="365" stroke="#333" stroke-width="5" stroke-linecap="round" />
<line x1="95" y1="365" x2="25" y2="365" stroke="#333" stroke-width="5" stroke-linecap="round" />
<line x1="95" y1="295" x2="25" y2="365" stroke="#333" stroke-width="5" stroke-linecap="round" />
<rect x="135" y="270" width="120" height="120" rx="8" fill="white" stroke="#e0e0e0" stroke-width="2" />
<line x1="230" y1="295" x2="230" y2="365" stroke="#333" stroke-width="5" stroke-linecap="round" />
<line x1="230" y1="365" x2="160" y2="365" stroke="#333" stroke-width="5" stroke-linecap="round" />
<line x1="160" y1="295" x2="230" y2="365" stroke="#333" stroke-width="5" stroke-linecap="round" />
<rect x="270" y="270" width="120" height="120" rx="8" fill="white" stroke="#e0e0e0" stroke-width="2" />
<text x="330" y="350" font-family="Arial" font-size="60" fill="#cccccc" text-anchor="middle">?</text>
</svg>