<?xml version="1.0" encoding="UTF-8" standalone="no"?>
<svg xmlns="http://www.w3.org/2000/svg" viewBox="0 0 660 660" width="660" height="660">
<rect width="100%" height="100%" fill="#FFFFFF"/>
<polygon points="115.00,45.00 175.62,150.00 54.38,150.00" fill="none" stroke="#040035" stroke-width="4" stroke-linejoin="round"/>
<circle cx="115.00" cy="115.00" r="12.00" fill="#040035" stroke="none" stroke-width="0"/>
<polygon points="330.00,45.00 400.00,115.00 330.00,185.00 260.00,115.00" fill="none" stroke="#040035" stroke-width="4" stroke-linejoin="round"/>
<polygon points="545.00,45.00 611.57,93.37 586.14,171.63 503.86,171.63 478.43,93.37" fill="none" stroke="#040035" stroke-width="4" stroke-linejoin="round"/>
<circle cx="545.00" cy="115.00" r="12.00" fill="#040035" stroke="none" stroke-width="0"/>
<polygon points="115.00,260.00 175.62,295.00 175.62,365.00 115.00,400.00 54.38,365.00 54.38,295.00" fill="none" stroke="#040035" stroke-width="4" stroke-linejoin="round"/>
<polygon points="330.00,260.00 384.73,286.36 398.24,345.58 360.37,393.07 299.63,393.07 261.76,345.58 275.27,286.36" fill="none" stroke="#040035" stroke-width="4" stroke-linejoin="round"/>
<circle cx="330.00" cy="330.00" r="12.00" fill="#040035" stroke="none" stroke-width="0"/>
<polygon points="545.00,260.00 594.50,280.50 615.00,330.00 594.50,379.50 545.00,400.00 495.50,379.50 475.00,330.00 495.50,280.50" fill="none" stroke="#040035" stroke-width="4" stroke-linejoin="round"/>
<polygon points="115.00,475.00 160.00,491.38 183.94,532.84 175.62,580.00 138.94,610.78 91.06,610.78 54.38,580.00 46.06,532.84 70.00,491.38" fill="none" stroke="#040035" stroke-width="4" stroke-linejoin="round"/>
<circle cx="115.00" cy="545.00" r="12.00" fill="#040035" stroke="none" stroke-width="0"/>
<polygon points="330.00,475.00 371.14,488.37 396.57,523.37 396.57,566.63 371.14,601.63 330.00,615.00 288.86,601.63 263.43,566.63 263.43,523.37 288.86,488.37" fill="none" stroke="#040035" stroke-width="4" stroke-linejoin="round"/>
<text x="545.00" y="590.00" font-family="Arial, Helvetica, sans-serif" font-size="140" font-weight="bold" fill="#040035" text-anchor="middle">?</text>
</svg>