<?xml version="1.0" encoding="UTF-8" standalone="no"?>
<svg xmlns="http://www.w3.org/2000/svg" viewBox="0 0 660 660" width="660" height="660">
<rect width="100%" height="100%" fill="#FFFFFF"/>
<rect x="55.00" y="55.00" width="120.00" height="120.00" fill="none" stroke="#040035" stroke-width="4"/>
<circle cx="75.00" cy="75.00" r="2.00" fill="#040035" stroke="none" stroke-width="0"/>
<circle cx="115.00" cy="75.00" r="2.00" fill="#040035" stroke="none" stroke-width="0"/>
<circle cx="155.00" cy="75.00" r="2.00" fill="#040035" stroke="none" stroke-width="0"/>
<circle cx="75.00" cy="115.00" r="2.00" fill="#040035" stroke="none" stroke-width="0"/>
<circle cx="115.00" cy="115.00" r="2.00" fill="#040035" stroke="none" stroke-width="0"/>
<circle cx="155.00" cy="115.00" r="10.00" fill="#040035" stroke="none" stroke-width="0"/>
<circle cx="75.00" cy="155.00" r="10.00" fill="#040035" stroke="none" stroke-width="0"/>
<circle cx="115.00" cy="155.00" r="10.00" fill="#040035" stroke="none" stroke-width="0"/>
<circle cx="155.00" cy="155.00" r="2.00" fill="#040035" stroke="none" stroke-width="0"/>
<rect x="270.00" y="55.00" width="120.00" height="120.00" fill="none" stroke="#040035" stroke-width="4"/>
<circle cx="290.00" cy="75.00" r="2.00" fill="#040035" stroke="none" stroke-width="0"/>
<circle cx="330.00" cy="75.00" r="2.00" fill="#040035" stroke="none" stroke-width="0"/>
<circle cx="370.00" cy="75.00" r="2.00" fill="#040035" stroke="none" stroke-width="0"/>
<circle cx="290.00" cy="115.00" r="10.00" fill="#040035" stroke="none" stroke-width="0"/>
<circle cx="330.00" cy="115.00" r="2.00" fill="#040035" stroke="none" stroke-width="0"/>
<circle cx="370.00" cy="115.00" r="2.00" fill="#040035" stroke="none" stroke-width="0"/>
<circle cx="290.00" cy="155.00" r="2.00" fill="#040035" stroke="none" stroke-width="0"/>
<circle cx="330.00" cy="155.00" r="2.00" fill="#040035" stroke="none" stroke-width="0"/>
<circle cx="370.00" cy="155.00" r="2.00" fill="#040035" stroke="none" stroke-width="0"/>
<rect x="485.00" y="55.00" width="120.00" height="120.00" fill="none" stroke="#040035" stroke-width="4"/>
<circle cx="505.00" cy="75.00" r="2.00" fill="#040035" stroke="none" stroke-width="0"/>
<circle cx="545.00" cy="75.00" r="2.00" fill="#040035" stroke="none" stroke-width="0"/>
<circle cx="585.00" cy="75.00" r="2.00" fill="#040035" stroke="none" stroke-width="0"/>
<circle cx="505.00" cy="115.00" r="10.00" fill="#040035" stroke="none" stroke-width="0"/>
<circle cx="545.00" cy="115.00" r="2.00" fill="#040035" stroke="none" stroke-width="0"/>
<circle cx="585.00" cy="115.00" r="10.00" fill="#040035" stroke="none" stroke-width="0"/>
<circle cx="505.00" cy="155.00" r="10.00" fill="#040035" stroke="none" stroke-width="0"/>
<circle cx="545.00" cy="155.00" r="10.00" fill="#040035" stroke="none" stroke-width="0"/>
<circle cx="585.00" cy="155.00" r="2.00" fill="#040035" stroke="none" stroke-width="0"/>
<rect x="55.00" y="270.00" width="120.00" height="120.00" fill="none" stroke="#040035" stroke-width="4"/>
<circle cx="75.00" cy="290.00" r="2.00" fill="#040035" stroke="none" stroke-width="0"/>
<circle cx="115.00" cy="290.00" r="10.00" fill="#040035" stroke="none" stroke-width="0"/>
<circle cx="155.00" cy="290.00" r="10.00" fill="#040035" stroke="none" stroke-width="0"/>
<circle cx="75.00" cy="330.00" r="10.00" fill="#040035" stroke="none" stroke-width="0"/>
<circle cx="115.00" cy="330.00" r="2.00" fill="#040035" stroke="none" stroke-width="0"/>
<circle cx="155.00" cy="330.00" r="10.00" fill="#040035" stroke="none" stroke-width="0"/>
<circle cx="75.00" cy="370.00" r="2.00" fill="#040035" stroke="none" stroke-width="0"/>
<circle cx="115.00" cy="370.00" r="2.00" fill="#040035" stroke="none" stroke-width="0"/>
<circle cx="155.00" cy="370.00" r="2.00" fill="#040035" stroke="none" stroke-width="0"/>
<rect x="270.00" y="270.00" width="120.00" height="120.00" fill="none" stroke="#040035" stroke-width="4"/>
<circle cx="290.00" cy="290.00" r="10.00" fill="#040035" stroke="none" stroke-width="0"/>
<circle cx="330.00" cy="290.00" r="2.00" fill="#040035" stroke="none" stroke-width="0"/>
<circle cx="370.00" cy="290.00" r="2.00" fill="#040035" stroke="none" stroke-width="0"/>
<circle cx="290.00" cy="330.00" r="10.00" fill="#040035" stroke="none" stroke-width="0"/>
<circle cx="330.00" cy="330.00" r="2.00" fill="#040035" stroke="none" stroke-width="0"/>
<circle cx="370.00" cy="330.00" r="2.00" fill="#040035" stroke="none" stroke-width="0"/>
<circle cx="290.00" cy="370.00" r="2.00" fill="#040035" stroke="none" stroke-width="0"/>
<circle cx="330.00" cy="370.00" r="2.00" fill="#040035" stroke="none" stroke-width="0"/>
<circle cx="370.00" cy="370.00" r="10.00" fill="#040035" stroke="none" stroke-width="0"/>
<rect x="485.00" y="270.00" width="120.00" height="120.00" fill="none" stroke="#040035" stroke-width="4"/>
<circle cx="505.00" cy="290.00" r="10.00" fill="#040035" stroke="none" stroke-width="0"/>
<circle cx="545.00" cy="290.00" r="10.00" fill="#040035" stroke="none" stroke-width="0"/>
<circle cx="585.00" cy="290.00" r="10.00" fill="#040035" stroke="none" stroke-width="0"/>
<circle cx="505.00" cy="330.00" r="10.00" fill="#040035" stroke="none" stroke-width="0"/>
<circle cx="545.00" cy="330.00" r="2.00" fill="#040035" stroke="none" stroke-width="0"/>
<circle cx="585.00" cy="330.00" r="10.00" fill="#040035" stroke="none" stroke-width="0"/>
<circle cx="505.00" cy="370.00" r="2.00" fill="#040035" stroke="none" stroke-width="0"/>
<circle cx="545.00" cy="370.00" r="2.00" fill="#040035" stroke="none" stroke-width="0"/>
<circle cx="585.00" cy="370.00" r="10.00" fill="#040035" stroke="none" stroke-width="0"/>
<rect x="55.00" y="485.00" width="120.00" height="120.00" fill="none" stroke="#040035" stroke-width="4"/>
<circle cx="75.00" cy="505.00" r="2.00" fill="#040035" stroke="none" stroke-width="0"/>
<circle cx="115.00" cy="505.00" r="10.00" fill="#040035" stroke="none" stroke-width="0"/>
<circle cx="155.00" cy="505.00" r="2.00" fill="#040035" stroke="none" stroke-width="0"/>
<circle cx="75.00" cy="545.00" r="10.00" fill="#040035" stroke="none" stroke-width="0"/>
<circle cx="115.00" cy="545.00" r="10.00" fill="#040035" stroke="none" stroke-width="0"/>
<circle cx="155.00" cy="545.00" r="2.00" fill="#040035" stroke="none" stroke-width="0"/>
<circle cx="75.00" cy="585.00" r="10.00" fill="#040035" stroke="none" stroke-width="0"/>
<circle cx="115.00" cy="585.00" r="2.00" fill="#040035" stroke="none" stroke-width="0"/>
<circle cx="155.00" cy="585.00" r="2.00" fill="#040035" stroke="none" stroke-width="0"/>
<rect x="270.00" y="485.00" width="120.00" height="120.00" fill="none" stroke="#040035" stroke-width="4"/>
<circle cx="290.00" cy="505.00" r="10.00" fill="#040035" stroke="none" stroke-width="0"/>
<circle cx="330.00" cy="505.00" r="2.00" fill="#040035" stroke="none" stroke-width="0"/>
<circle cx="370.00" cy="505.00" r="2.00" fill="#040035" stroke="none" stroke-width="0"/>
<circle cx="290.00" cy="545.00" r="2.00" fill="#040035" stroke="none" stroke-width="0"/>
<circle cx="330.00" cy="545.00" r="10.00" fill="#040035" stroke="none" stroke-width="0"/>
<circle cx="370.00" cy="545.00" r="2.00" fill="#040035" stroke="none" stroke-width="0"/>
<circle cx="290.00" cy="585.00" r="2.00" fill="#040035" stroke="none" stroke-width="0"/>
<circle cx="330.00" cy="585.00" r="2.00" fill="#040035" stroke="none" stroke-width="0"/>
<circle cx="370.00" cy="585.00" r="10.00" fill="#040035" stroke="none" stroke-width="0"/>
<text x="545.00" y="590.00" font-family="Arial, Helvetica, sans-serif" font-size="140" font-weight="bold" fill="#040035" text-anchor="middle">?</text>
</svg>