<?xml version="1.0" encoding="UTF-8" standalone="no"?>
<svg xmlns="http://www.w3.org/2000/svg" viewBox="0 0 660 660" width="660" height="660">
<rect width="100%" height="100%" fill="#FFFFFF"/>
<circle cx="115.00" cy="115.00" r="75.00" fill="none" stroke="#040035" stroke-width="4"/>
<line x1="115.00" y1="115.00" x2="115.00" y2="180.00" stroke="#040035" stroke-width="6.0" stroke-linecap="round"/>
<line x1="115.00" y1="115.00" x2="115.00" y2="160.00" stroke="#040035" stroke-width="6.0" stroke-linecap="round"/>
<circle cx="115.00" cy="115.00" r="8.00" fill="#040035" stroke="none" stroke-width="0"/>
<circle cx="330.00" cy="115.00" r="75.00" fill="none" stroke="#040035" stroke-width="4"/>
<line x1="330.00" y1="115.00" x2="395.00" y2="115.00" stroke="#040035" stroke-width="6.0" stroke-linecap="round"/>
<line x1="330.00" y1="115.00" x2="375.00" y2="115.00" stroke="#040035" stroke-width="6.0" stroke-linecap="round"/>
<circle cx="330.00" cy="115.00" r="8.00" fill="#040035" stroke="none" stroke-width="0"/>
<circle cx="545.00" cy="115.00" r="75.00" fill="none" stroke="#040035" stroke-width="4"/>
<line x1="545.00" y1="115.00" x2="545.00" y2="50.00" stroke="#040035" stroke-width="6.0" stroke-linecap="round"/>
<line x1="545.00" y1="115.00" x2="545.00" y2="70.00" stroke="#040035" stroke-width="6.0" stroke-linecap="round"/>
<circle cx="545.00" cy="115.00" r="8.00" fill="#040035" stroke="none" stroke-width="0"/>
<circle cx="115.00" cy="330.00" r="75.00" fill="none" stroke="#040035" stroke-width="4"/>
<line x1="115.00" y1="330.00" x2="180.00" y2="330.00" stroke="#040035" stroke-width="6.0" stroke-linecap="round"/>
<line x1="115.00" y1="330.00" x2="146.82" y2="361.82" stroke="#040035" stroke-width="6.0" stroke-linecap="round"/>
<circle cx="115.00" cy="330.00" r="8.00" fill="#040035" stroke="none" stroke-width="0"/>
<circle cx="330.00" cy="330.00" r="75.00" fill="none" stroke="#040035" stroke-width="4"/>
<line x1="330.00" y1="330.00" x2="330.00" y2="265.00" stroke="#040035" stroke-width="6.0" stroke-linecap="round"/>
<line x1="330.00" y1="330.00" x2="361.82" y2="298.18" stroke="#040035" stroke-width="6.0" stroke-linecap="round"/>
<circle cx="330.00" cy="330.00" r="8.00" fill="#040035" stroke="none" stroke-width="0"/>
<circle cx="545.00" cy="330.00" r="75.00" fill="none" stroke="#040035" stroke-width="4"/>
<line x1="545.00" y1="330.00" x2="480.00" y2="330.00" stroke="#040035" stroke-width="6.0" stroke-linecap="round"/>
<line x1="545.00" y1="330.00" x2="513.18" y2="298.18" stroke="#040035" stroke-width="6.0" stroke-linecap="round"/>
<circle cx="545.00" cy="330.00" r="8.00" fill="#040035" stroke="none" stroke-width="0"/>
<circle cx="115.00" cy="545.00" r="75.00" fill="none" stroke="#040035" stroke-width="4"/>
<line x1="115.00" y1="545.00" x2="115.00" y2="480.00" stroke="#040035" stroke-width="6.0" stroke-linecap="round"/>
<line x1="115.00" y1="545.00" x2="160.00" y2="545.00" stroke="#040035" stroke-width="6.0" stroke-linecap="round"/>
<circle cx="115.00" cy="545.00" r="8.00" fill="#040035" stroke="none" stroke-width="0"/>
<circle cx="330.00" cy="545.00" r="75.00" fill="none" stroke="#040035" stroke-width="4"/>
<line x1="330.00" y1="545.00" x2="265.00" y2="545.00" stroke="#040035" stroke-width="6.0" stroke-linecap="round"/>
<line x1="330.00" y1="545.00" x2="330.00" y2="500.00" stroke="#040035" stroke-width="6.0" stroke-linecap="round"/>
<circle cx="330.00" cy="545.00" r="8.00" fill="#040035" stroke="none" stroke-width="0"/>
<text x="545.00" y="590.00" font-family="Arial, Helvetica, sans-serif" font-size="140" font-weight="bold" fill="#040035" text-anchor="middle">?</text>
</svg>