<svg xmlns="http://www.w3.org/2000/svg" width="390" height="390" viewBox="0 0 390 390">
<rect x="0" y="0" width="120" height="120" rx="8" fill="white" stroke="#e0e0e0" stroke-width="2" />
<circle cx="60" cy="60" r="4" fill="#333" />
<line x1="60" y1="60" x2="60" y2="25" stroke="#333" stroke-width="4" stroke-linecap="round" />
<line x1="60" y1="60" x2="85" y2="35" stroke="#333" stroke-width="4" stroke-linecap="round" />
<line x1="60" y1="60" x2="85" y2="85" stroke="#333" stroke-width="4" stroke-linecap="round" />
<line x1="60" y1="60" x2="60" y2="95" stroke="#333" stroke-width="4" stroke-linecap="round" />
<line x1="60" y1="60" x2="25" y2="60" stroke="#333" stroke-width="4" stroke-linecap="round" />
<line x1="60" y1="60" x2="35" y2="35" stroke="#333" stroke-width="4" stroke-linecap="round" />
<rect x="135" y="0" width="120" height="120" rx="8" fill="white" stroke="#e0e0e0" stroke-width="2" />
<circle cx="195" cy="60" r="4" fill="#333" />
<line x1="195" y1="60" x2="195" y2="95" stroke="#333" stroke-width="4" stroke-linecap="round" />
<line x1="195" y1="60" x2="170" y2="85" stroke="#333" stroke-width="4" stroke-linecap="round" />
<rect x="270" y="0" width="120" height="120" rx="8" fill="white" stroke="#e0e0e0" stroke-width="2" />
<circle cx="330" cy="60" r="4" fill="#333" />
<line x1="330" y1="60" x2="330" y2="25" stroke="#333" stroke-width="4" stroke-linecap="round" />
<line x1="330" y1="60" x2="355" y2="35" stroke="#333" stroke-width="4" stroke-linecap="round" />
<line x1="330" y1="60" x2="355" y2="85" stroke="#333" stroke-width="4" stroke-linecap="round" />
<line x1="330" y1="60" x2="305" y2="85" stroke="#333" stroke-width="4" stroke-linecap="round" />
<line x1="330" y1="60" x2="295" y2="60" stroke="#333" stroke-width="4" stroke-linecap="round" />
<line x1="330" y1="60" x2="305" y2="35" stroke="#333" stroke-width="4" stroke-linecap="round" />
<rect x="0" y="135" width="120" height="120" rx="8" fill="white" stroke="#e0e0e0" stroke-width="2" />
<circle cx="60" cy="195" r="4" fill="#333" />
<line x1="60" y1="195" x2="60" y2="160" stroke="#333" stroke-width="4" stroke-linecap="round" />
<line x1="60" y1="195" x2="85" y2="170" stroke="#333" stroke-width="4" stroke-linecap="round" />
<line x1="60" y1="195" x2="95" y2="195" stroke="#333" stroke-width="4" stroke-linecap="round" />
<line x1="60" y1="195" x2="35" y2="220" stroke="#333" stroke-width="4" stroke-linecap="round" />
<line x1="60" y1="195" x2="25" y2="195" stroke="#333" stroke-width="4" stroke-linecap="round" />
<line x1="60" y1="195" x2="35" y2="170" stroke="#333" stroke-width="4" stroke-linecap="round" />
<rect x="135" y="135" width="120" height="120" rx="8" fill="white" stroke="#e0e0e0" stroke-width="2" />
<circle cx="195" cy="195" r="4" fill="#333" />
<line x1="195" y1="195" x2="220" y2="220" stroke="#333" stroke-width="4" stroke-linecap="round" />
<line x1="195" y1="195" x2="170" y2="220" stroke="#333" stroke-width="4" stroke-linecap="round" />
<rect x="270" y="135" width="120" height="120" rx="8" fill="white" stroke="#e0e0e0" stroke-width="2" />
<circle cx="330" cy="195" r="4" fill="#333" />
<line x1="330" y1="195" x2="330" y2="160" stroke="#333" stroke-width="4" stroke-linecap="round" />
<line x1="330" y1="195" x2="355" y2="170" stroke="#333" stroke-width="4" stroke-linecap="round" />
<line x1="330" y1="195" x2="365" y2="195" stroke="#333" stroke-width="4" stroke-linecap="round" />
<line x1="330" y1="195" x2="355" y2="220" stroke="#333" stroke-width="4" stroke-linecap="round" />
<line x1="330" y1="195" x2="295" y2="195" stroke="#333" stroke-width="4" stroke-linecap="round" />
<line x1="330" y1="195" x2="305" y2="170" stroke="#333" stroke-width="4" stroke-linecap="round" />
<rect x="0" y="270" width="120" height="120" rx="8" fill="white" stroke="#e0e0e0" stroke-width="2" />
<circle cx="60" cy="330" r="4" fill="#333" />
<line x1="60" y1="330" x2="60" y2="295" stroke="#333" stroke-width="4" stroke-linecap="round" />
<line x1="60" y1="330" x2="85" y2="355" stroke="#333" stroke-width="4" stroke-linecap="round" />
<line x1="60" y1="330" x2="60" y2="365" stroke="#333" stroke-width="4" stroke-linecap="round" />
<line x1="60" y1="330" x2="25" y2="330" stroke="#333" stroke-width="4" stroke-linecap="round" />
<line x1="60" y1="330" x2="35" y2="305" stroke="#333" stroke-width="4" stroke-linecap="round" />
<rect x="135" y="270" width="120" height="120" rx="8" fill="white" stroke="#e0e0e0" stroke-width="2" />
<circle cx="195" cy="330" r="4" fill="#333" />
<line x1="195" y1="330" x2="195" y2="295" stroke="#333" stroke-width="4" stroke-linecap="round" />
<line x1="195" y1="330" x2="220" y2="305" stroke="#333" stroke-width="4" stroke-linecap="round" />
<line x1="195" y1="330" x2="220" y2="355" stroke="#333" stroke-width="4" stroke-linecap="round" />
<line x1="195" y1="330" x2="160" y2="330" stroke="#333" stroke-width="4" stroke-linecap="round" />
<rect x="270" y="270" width="120" height="120" rx="8" fill="white" stroke="#e0e0e0" stroke-width="2" />
<text x="330" y="350" font-family="Arial" font-size="60" fill="#cccccc" text-anchor="middle">?</text>
</svg>