<svg xmlns="http://www.w3.org/2000/svg" width="450" height="450" viewBox="0 0 450 450">
<rect width="450" height="450" fill="white" />
<rect x="30" y="30" width="30" height="30" fill="#ffffff" stroke="#000000" stroke-width="3" />
<rect x="60" y="30" width="30" height="30" fill="#ffffff" stroke="#000000" stroke-width="3" />
<rect x="90" y="30" width="30" height="30" fill="#000000" stroke="#000000" stroke-width="3" />
<rect x="30" y="60" width="30" height="30" fill="#ffffff" stroke="#000000" stroke-width="3" />
<rect x="60" y="60" width="30" height="30" fill="#ffffff" stroke="#000000" stroke-width="3" />
<rect x="90" y="60" width="30" height="30" fill="#000000" stroke="#000000" stroke-width="3" />
<rect x="30" y="90" width="30" height="30" fill="#000000" stroke="#000000" stroke-width="3" />
<rect x="60" y="90" width="30" height="30" fill="#000000" stroke="#000000" stroke-width="3" />
<rect x="90" y="90" width="30" height="30" fill="#ffffff" stroke="#000000" stroke-width="3" />
<rect x="180" y="30" width="30" height="30" fill="#ffffff" stroke="#000000" stroke-width="3" />
<rect x="210" y="30" width="30" height="30" fill="#ffffff" stroke="#000000" stroke-width="3" />
<rect x="240" y="30" width="30" height="30" fill="#000000" stroke="#000000" stroke-width="3" />
<rect x="180" y="60" width="30" height="30" fill="#ffffff" stroke="#000000" stroke-width="3" />
<rect x="210" y="60" width="30" height="30" fill="#ffffff" stroke="#000000" stroke-width="3" />
<rect x="240" y="60" width="30" height="30" fill="#ffffff" stroke="#000000" stroke-width="3" />
<rect x="180" y="90" width="30" height="30" fill="#000000" stroke="#000000" stroke-width="3" />
<rect x="210" y="90" width="30" height="30" fill="#ffffff" stroke="#000000" stroke-width="3" />
<rect x="240" y="90" width="30" height="30" fill="#ffffff" stroke="#000000" stroke-width="3" />
<rect x="330" y="30" width="30" height="30" fill="#ffffff" stroke="#000000" stroke-width="3" />
<rect x="360" y="30" width="30" height="30" fill="#000000" stroke="#000000" stroke-width="3" />
<rect x="390" y="30" width="30" height="30" fill="#ffffff" stroke="#000000" stroke-width="3" />
<rect x="330" y="60" width="30" height="30" fill="#ffffff" stroke="#000000" stroke-width="3" />
<rect x="360" y="60" width="30" height="30" fill="#ffffff" stroke="#000000" stroke-width="3" />
<rect x="390" y="60" width="30" height="30" fill="#000000" stroke="#000000" stroke-width="3" />
<rect x="330" y="90" width="30" height="30" fill="#ffffff" stroke="#000000" stroke-width="3" />
<rect x="360" y="90" width="30" height="30" fill="#ffffff" stroke="#000000" stroke-width="3" />
<rect x="390" y="90" width="30" height="30" fill="#ffffff" stroke="#000000" stroke-width="3" />
<rect x="30" y="180" width="30" height="30" fill="#ffffff" stroke="#000000" stroke-width="3" />
<rect x="60" y="180" width="30" height="30" fill="#000000" stroke="#000000" stroke-width="3" />
<rect x="90" y="180" width="30" height="30" fill="#ffffff" stroke="#000000" stroke-width="3" />
<rect x="30" y="210" width="30" height="30" fill="#000000" stroke="#000000" stroke-width="3" />
<rect x="60" y="210" width="30" height="30" fill="#ffffff" stroke="#000000" stroke-width="3" />
<rect x="90" y="210" width="30" height="30" fill="#ffffff" stroke="#000000" stroke-width="3" />
<rect x="30" y="240" width="30" height="30" fill="#000000" stroke="#000000" stroke-width="3" />
<rect x="60" y="240" width="30" height="30" fill="#000000" stroke="#000000" stroke-width="3" />
<rect x="90" y="240" width="30" height="30" fill="#ffffff" stroke="#000000" stroke-width="3" />
<rect x="180" y="180" width="30" height="30" fill="#ffffff" stroke="#000000" stroke-width="3" />
<rect x="210" y="180" width="30" height="30" fill="#000000" stroke="#000000" stroke-width="3" />
<rect x="240" y="180" width="30" height="30" fill="#ffffff" stroke="#000000" stroke-width="3" />
<rect x="180" y="210" width="30" height="30" fill="#ffffff" stroke="#000000" stroke-width="3" />
<rect x="210" y="210" width="30" height="30" fill="#ffffff" stroke="#000000" stroke-width="3" />
<rect x="240" y="210" width="30" height="30" fill="#ffffff" stroke="#000000" stroke-width="3" />
<rect x="180" y="240" width="30" height="30" fill="#ffffff" stroke="#000000" stroke-width="3" />
<rect x="210" y="240" width="30" height="30" fill="#ffffff" stroke="#000000" stroke-width="3" />
<rect x="240" y="240" width="30" height="30" fill="#ffffff" stroke="#000000" stroke-width="3" />
<rect x="330" y="180" width="30" height="30" fill="#000000" stroke="#000000" stroke-width="3" />
<rect x="360" y="180" width="30" height="30" fill="#000000" stroke="#000000" stroke-width="3" />
<rect x="390" y="180" width="30" height="30" fill="#ffffff" stroke="#000000" stroke-width="3" />
<rect x="330" y="210" width="30" height="30" fill="#000000" stroke="#000000" stroke-width="3" />
<rect x="360" y="210" width="30" height="30" fill="#ffffff" stroke="#000000" stroke-width="3" />
<rect x="390" y="210" width="30" height="30" fill="#ffffff" stroke="#000000" stroke-width="3" />
<rect x="330" y="240" width="30" height="30" fill="#ffffff" stroke="#000000" stroke-width="3" />
<rect x="360" y="240" width="30" height="30" fill="#ffffff" stroke="#000000" stroke-width="3" />
<rect x="390" y="240" width="30" height="30" fill="#ffffff" stroke="#000000" stroke-width="3" />
<rect x="30" y="330" width="30" height="30" fill="#ffffff" stroke="#000000" stroke-width="3" />
<rect x="60" y="330" width="30" height="30" fill="#000000" stroke="#000000" stroke-width="3" />
<rect x="90" y="330" width="30" height="30" fill="#000000" stroke="#000000" stroke-width="3" />
<rect x="30" y="360" width="30" height="30" fill="#000000" stroke="#000000" stroke-width="3" />
<rect x="60" y="360" width="30" height="30" fill="#ffffff" stroke="#000000" stroke-width="3" />
<rect x="90" y="360" width="30" height="30" fill="#ffffff" stroke="#000000" stroke-width="3" />
<rect x="30" y="390" width="30" height="30" fill="#ffffff" stroke="#000000" stroke-width="3" />
<rect x="60" y="390" width="30" height="30" fill="#ffffff" stroke="#000000" stroke-width="3" />
<rect x="90" y="390" width="30" height="30" fill="#ffffff" stroke="#000000" stroke-width="3" />
<rect x="180" y="330" width="30" height="30" fill="#ffffff" stroke="#000000" stroke-width="3" />
<rect x="210" y="330" width="30" height="30" fill="#ffffff" stroke="#000000" stroke-width="3" />
<rect x="240" y="330" width="30" height="30" fill="#ffffff" stroke="#000000" stroke-width="3" />
<rect x="180" y="360" width="30" height="30" fill="#000000" stroke="#000000" stroke-width="3" />
<rect x="210" y="360" width="30" height="30" fill="#ffffff" stroke="#000000" stroke-width="3" />
<rect x="240" y="360" width="30" height="30" fill="#ffffff" stroke="#000000" stroke-width="3" />
<rect x="180" y="390" width="30" height="30" fill="#ffffff" stroke="#000000" stroke-width="3" />
<rect x="210" y="390" width="30" height="30" fill="#ffffff" stroke="#000000" stroke-width="3" />
<rect x="240" y="390" width="30" height="30" fill="#ffffff" stroke="#000000" stroke-width="3" />
<text x="375" y="400" font-family="Arial" font-weight="bold" font-size="80" fill="#000000" text-anchor="middle">?</text>
<rect x="0" y="0" width="450" height="450" fill="none" stroke="#000000" stroke-width="6" />
<line x1="150" y1="0" x2="150" y2="450" stroke="#000000" stroke-width="6" />
<line x1="300" y1="0" x2="300" y2="450" stroke="#000000" stroke-width="6" />
<line x1="0" y1="150" x2="450" y2="150" stroke="#000000" stroke-width="6" />
<line x1="0" y1="300" x2="450" y2="300" stroke="#000000" stroke-width="6" />
</svg>