<?xml version="1.0" encoding="UTF-8" standalone="no"?>
<svg xmlns="http://www.w3.org/2000/svg" viewBox="0 0 660 660" width="660" height="660">
<rect width="100%" height="100%" fill="#FFFFFF"/>
<line x1="15.00" y1="15.00" x2="15.00" y2="645.00" stroke="#040035" stroke-width="2" stroke-linecap="butt"/>
<line x1="15.00" y1="15.00" x2="645.00" y2="15.00" stroke="#040035" stroke-width="2" stroke-linecap="butt"/>
<line x1="230.00" y1="15.00" x2="230.00" y2="645.00" stroke="#040035" stroke-width="2" stroke-linecap="butt"/>
<line x1="15.00" y1="230.00" x2="645.00" y2="230.00" stroke="#040035" stroke-width="2" stroke-linecap="butt"/>
<line x1="445.00" y1="15.00" x2="445.00" y2="645.00" stroke="#040035" stroke-width="2" stroke-linecap="butt"/>
<line x1="15.00" y1="445.00" x2="645.00" y2="445.00" stroke="#040035" stroke-width="2" stroke-linecap="butt"/>
<line x1="660.00" y1="15.00" x2="660.00" y2="645.00" stroke="#040035" stroke-width="2" stroke-linecap="butt"/>
<line x1="15.00" y1="660.00" x2="645.00" y2="660.00" stroke="#040035" stroke-width="2" stroke-linecap="butt"/>
<circle cx="85.00" cy="85.00" r="10.00" fill="#040035" stroke="#040035" stroke-width="2"/>
<circle cx="115.00" cy="85.00" r="10.00" fill="#040035" stroke="#040035" stroke-width="2"/>
<circle cx="145.00" cy="85.00" r="10.00" fill="#040035" stroke="#040035" stroke-width="2"/>
<circle cx="85.00" cy="115.00" r="10.00" fill="#040035" stroke="#040035" stroke-width="2"/>
<circle cx="115.00" cy="115.00" r="10.00" fill="none" stroke="#040035" stroke-width="2"/>
<circle cx="145.00" cy="115.00" r="10.00" fill="#040035" stroke="#040035" stroke-width="2"/>
<circle cx="85.00" cy="145.00" r="10.00" fill="none" stroke="#040035" stroke-width="2"/>
<circle cx="115.00" cy="145.00" r="10.00" fill="none" stroke="#040035" stroke-width="2"/>
<circle cx="145.00" cy="145.00" r="10.00" fill="none" stroke="#040035" stroke-width="2"/>
<circle cx="300.00" cy="85.00" r="10.00" fill="#040035" stroke="#040035" stroke-width="2"/>
<circle cx="330.00" cy="85.00" r="10.00" fill="#040035" stroke="#040035" stroke-width="2"/>
<circle cx="360.00" cy="85.00" r="10.00" fill="none" stroke="#040035" stroke-width="2"/>
<circle cx="300.00" cy="115.00" r="10.00" fill="#040035" stroke="#040035" stroke-width="2"/>
<circle cx="330.00" cy="115.00" r="10.00" fill="none" stroke="#040035" stroke-width="2"/>
<circle cx="360.00" cy="115.00" r="10.00" fill="none" stroke="#040035" stroke-width="2"/>
<circle cx="300.00" cy="145.00" r="10.00" fill="#040035" stroke="#040035" stroke-width="2"/>
<circle cx="330.00" cy="145.00" r="10.00" fill="#040035" stroke="#040035" stroke-width="2"/>
<circle cx="360.00" cy="145.00" r="10.00" fill="none" stroke="#040035" stroke-width="2"/>
<circle cx="515.00" cy="85.00" r="10.00" fill="none" stroke="#040035" stroke-width="2"/>
<circle cx="545.00" cy="85.00" r="10.00" fill="none" stroke="#040035" stroke-width="2"/>
<circle cx="575.00" cy="85.00" r="10.00" fill="none" stroke="#040035" stroke-width="2"/>
<circle cx="515.00" cy="115.00" r="10.00" fill="#040035" stroke="#040035" stroke-width="2"/>
<circle cx="545.00" cy="115.00" r="10.00" fill="none" stroke="#040035" stroke-width="2"/>
<circle cx="575.00" cy="115.00" r="10.00" fill="#040035" stroke="#040035" stroke-width="2"/>
<circle cx="515.00" cy="145.00" r="10.00" fill="#040035" stroke="#040035" stroke-width="2"/>
<circle cx="545.00" cy="145.00" r="10.00" fill="#040035" stroke="#040035" stroke-width="2"/>
<circle cx="575.00" cy="145.00" r="10.00" fill="#040035" stroke="#040035" stroke-width="2"/>
<circle cx="85.00" cy="300.00" r="10.00" fill="none" stroke="#040035" stroke-width="2"/>
<circle cx="115.00" cy="300.00" r="10.00" fill="#040035" stroke="#040035" stroke-width="2"/>
<circle cx="145.00" cy="300.00" r="10.00" fill="#040035" stroke="#040035" stroke-width="2"/>
<circle cx="85.00" cy="330.00" r="10.00" fill="none" stroke="#040035" stroke-width="2"/>
<circle cx="115.00" cy="330.00" r="10.00" fill="#040035" stroke="#040035" stroke-width="2"/>
<circle cx="145.00" cy="330.00" r="10.00" fill="none" stroke="#040035" stroke-width="2"/>
<circle cx="85.00" cy="360.00" r="10.00" fill="none" stroke="#040035" stroke-width="2"/>
<circle cx="115.00" cy="360.00" r="10.00" fill="none" stroke="#040035" stroke-width="2"/>
<circle cx="145.00" cy="360.00" r="10.00" fill="none" stroke="#040035" stroke-width="2"/>
<circle cx="300.00" cy="300.00" r="10.00" fill="#040035" stroke="#040035" stroke-width="2"/>
<circle cx="330.00" cy="300.00" r="10.00" fill="none" stroke="#040035" stroke-width="2"/>
<circle cx="360.00" cy="300.00" r="10.00" fill="none" stroke="#040035" stroke-width="2"/>
<circle cx="300.00" cy="330.00" r="10.00" fill="#040035" stroke="#040035" stroke-width="2"/>
<circle cx="330.00" cy="330.00" r="10.00" fill="#040035" stroke="#040035" stroke-width="2"/>
<circle cx="360.00" cy="330.00" r="10.00" fill="none" stroke="#040035" stroke-width="2"/>
<circle cx="300.00" cy="360.00" r="10.00" fill="none" stroke="#040035" stroke-width="2"/>
<circle cx="330.00" cy="360.00" r="10.00" fill="none" stroke="#040035" stroke-width="2"/>
<circle cx="360.00" cy="360.00" r="10.00" fill="none" stroke="#040035" stroke-width="2"/>
<circle cx="515.00" cy="300.00" r="10.00" fill="none" stroke="#040035" stroke-width="2"/>
<circle cx="545.00" cy="300.00" r="10.00" fill="none" stroke="#040035" stroke-width="2"/>
<circle cx="575.00" cy="300.00" r="10.00" fill="none" stroke="#040035" stroke-width="2"/>
<circle cx="515.00" cy="330.00" r="10.00" fill="none" stroke="#040035" stroke-width="2"/>
<circle cx="545.00" cy="330.00" r="10.00" fill="#040035" stroke="#040035" stroke-width="2"/>
<circle cx="575.00" cy="330.00" r="10.00" fill="none" stroke="#040035" stroke-width="2"/>
<circle cx="515.00" cy="360.00" r="10.00" fill="#040035" stroke="#040035" stroke-width="2"/>
<circle cx="545.00" cy="360.00" r="10.00" fill="#040035" stroke="#040035" stroke-width="2"/>
<circle cx="575.00" cy="360.00" r="10.00" fill="none" stroke="#040035" stroke-width="2"/>
<circle cx="85.00" cy="515.00" r="10.00" fill="none" stroke="#040035" stroke-width="2"/>
<circle cx="115.00" cy="515.00" r="10.00" fill="#040035" stroke="#040035" stroke-width="2"/>
<circle cx="145.00" cy="515.00" r="10.00" fill="#040035" stroke="#040035" stroke-width="2"/>
<circle cx="85.00" cy="545.00" r="10.00" fill="none" stroke="#040035" stroke-width="2"/>
<circle cx="115.00" cy="545.00" r="10.00" fill="none" stroke="#040035" stroke-width="2"/>
<circle cx="145.00" cy="545.00" r="10.00" fill="#040035" stroke="#040035" stroke-width="2"/>
<circle cx="85.00" cy="575.00" r="10.00" fill="#040035" stroke="#040035" stroke-width="2"/>
<circle cx="115.00" cy="575.00" r="10.00" fill="#040035" stroke="#040035" stroke-width="2"/>
<circle cx="145.00" cy="575.00" r="10.00" fill="none" stroke="#040035" stroke-width="2"/>
<circle cx="300.00" cy="515.00" r="10.00" fill="#040035" stroke="#040035" stroke-width="2"/>
<circle cx="330.00" cy="515.00" r="10.00" fill="#040035" stroke="#040035" stroke-width="2"/>
<circle cx="360.00" cy="515.00" r="10.00" fill="none" stroke="#040035" stroke-width="2"/>
<circle cx="300.00" cy="545.00" r="10.00" fill="#040035" stroke="#040035" stroke-width="2"/>
<circle cx="330.00" cy="545.00" r="10.00" fill="none" stroke="#040035" stroke-width="2"/>
<circle cx="360.00" cy="545.00" r="10.00" fill="#040035" stroke="#040035" stroke-width="2"/>
<circle cx="300.00" cy="575.00" r="10.00" fill="none" stroke="#040035" stroke-width="2"/>
<circle cx="330.00" cy="575.00" r="10.00" fill="none" stroke="#040035" stroke-width="2"/>
<circle cx="360.00" cy="575.00" r="10.00" fill="#040035" stroke="#040035" stroke-width="2"/>
<text x="545.00" y="590.00" font-family="Arial, Helvetica, sans-serif" font-size="140" font-weight="bold" fill="#040035" text-anchor="middle">?</text>
</svg>