<svg xmlns="http://www.w3.org/2000/svg" width="120" height="120" viewBox="0 0 120 120">
<rect x="0" y="0" width="120" height="120" rx="8" fill="white" stroke="#e0e0e0" stroke-width="2" />
<line x1="10" y1="10" x2="10" y2="110" stroke="#f0f2f5" stroke-width="2" />
<line x1="10" y1="10" x2="110" y2="10" stroke="#f0f2f5" stroke-width="2" />
<line x1="35" y1="10" x2="35" y2="110" stroke="#f0f2f5" stroke-width="2" />
<line x1="10" y1="35" x2="110" y2="35" stroke="#f0f2f5" stroke-width="2" />
<line x1="60" y1="10" x2="60" y2="110" stroke="#f0f2f5" stroke-width="2" />
<line x1="10" y1="60" x2="110" y2="60" stroke="#f0f2f5" stroke-width="2" />
<line x1="85" y1="10" x2="85" y2="110" stroke="#f0f2f5" stroke-width="2" />
<line x1="10" y1="85" x2="110" y2="85" stroke="#f0f2f5" stroke-width="2" />
<line x1="110" y1="10" x2="110" y2="110" stroke="#f0f2f5" stroke-width="2" />
<line x1="10" y1="110" x2="110" y2="110" stroke="#f0f2f5" stroke-width="2" />
<rect x="12" y="12" width="21" height="21" rx="4" fill="#2c3e50" />
<rect x="37" y="12" width="21" height="21" rx="4" fill="#2c3e50" />
<rect x="62" y="12" width="21" height="21" rx="4" fill="#2c3e50" />
<rect x="37" y="37" width="21" height="21" rx="4" fill="#2c3e50" />
<rect x="62" y="37" width="21" height="21" rx="4" fill="#2c3e50" />
<rect x="12" y="62" width="21" height="21" rx="4" fill="#2c3e50" />
<rect x="37" y="62" width="21" height="21" rx="4" fill="#2c3e50" />
<rect x="62" y="62" width="21" height="21" rx="4" fill="#2c3e50" />
<rect x="62" y="87" width="21" height="21" rx="4" fill="#2c3e50" />
</svg>